<mxfile host="65bd71144e" pages="3">
    <diagram id="clDoqXVkzkK-a3v5EleN" name="基础符号">
        <mxGraphModel dx="2472" dy="607" grid="1" gridSize="10" guides="1" tooltips="1" connect="1" arrows="1" fold="1" page="1" pageScale="1" pageWidth="827" pageHeight="1169" math="0" shadow="0">
            <root>
                <mxCell id="0"/>
                <mxCell id="1" parent="0"/>
                <mxCell id="hp9sdmIWLMyYn5PrPFzk-4" value="基本流程图形状" style="swimlane;startSize=36;arcSize=15;fontFamily=阿里汉仪智能黑体;fontSource=https%3A%2F%2Fhellowebfonts.oss-cn-beijing.aliyuncs.com%2F698F3099-E62F-4C3B-B30A-04FB735069FE%2F202209%2F44C5C1037925EC78.ttf;fontSize=16;swimlaneHead=1;swimlaneBody=1;horizontal=1;swimlaneLine=1;" parent="1" vertex="1">
                    <mxGeometry x="-1550" y="110" width="1213" height="560" as="geometry"/>
                </mxCell>
                <mxCell id="hp9sdmIWLMyYn5PrPFzk-2" value="流程" style="rounded=0;whiteSpace=wrap;html=1;strokeWidth=1;labelPosition=center;verticalLabelPosition=bottom;align=center;verticalAlign=top;fontSize=14;fontFamily=阿里汉仪智能黑体;fontSource=https%3A%2F%2Fhellowebfonts.oss-cn-beijing.aliyuncs.com%2F698F3099-E62F-4C3B-B30A-04FB735069FE%2F202209%2F44C5C1037925EC78.ttf;" parent="hp9sdmIWLMyYn5PrPFzk-4" vertex="1">
                    <mxGeometry x="62" y="70" width="120" height="60" as="geometry"/>
                </mxCell>
                <mxCell id="hp9sdmIWLMyYn5PrPFzk-5" value="决策" style="rhombus;whiteSpace=wrap;html=1;fontFamily=阿里汉仪智能黑体;fontSource=https%3A%2F%2Fhellowebfonts.oss-cn-beijing.aliyuncs.com%2F698F3099-E62F-4C3B-B30A-04FB735069FE%2F202209%2F44C5C1037925EC78.ttf;fontSize=14;startSize=36;strokeWidth=1;labelPosition=center;verticalLabelPosition=bottom;align=center;verticalAlign=top;" parent="hp9sdmIWLMyYn5PrPFzk-4" vertex="1">
                    <mxGeometry x="246" y="70" width="80" height="60" as="geometry"/>
                </mxCell>
                <mxCell id="hp9sdmIWLMyYn5PrPFzk-6" value="文档" style="shape=document;whiteSpace=wrap;html=1;boundedLbl=1;fontFamily=阿里汉仪智能黑体;fontSource=https%3A%2F%2Fhellowebfonts.oss-cn-beijing.aliyuncs.com%2F698F3099-E62F-4C3B-B30A-04FB735069FE%2F202209%2F44C5C1037925EC78.ttf;fontSize=14;startSize=36;strokeWidth=1;labelPosition=center;verticalLabelPosition=bottom;align=center;verticalAlign=top;" parent="hp9sdmIWLMyYn5PrPFzk-4" vertex="1">
                    <mxGeometry x="62" y="460" width="120" height="60" as="geometry"/>
                </mxCell>
                <mxCell id="hp9sdmIWLMyYn5PrPFzk-7" value="数据" style="shape=parallelogram;html=1;strokeWidth=1;perimeter=parallelogramPerimeter;whiteSpace=wrap;rounded=1;arcSize=12;size=0.23;fontFamily=阿里汉仪智能黑体;fontSource=https%3A%2F%2Fhellowebfonts.oss-cn-beijing.aliyuncs.com%2F698F3099-E62F-4C3B-B30A-04FB735069FE%2F202209%2F44C5C1037925EC78.ttf;fontSize=14;startSize=36;labelPosition=center;verticalLabelPosition=bottom;align=center;verticalAlign=top;" parent="hp9sdmIWLMyYn5PrPFzk-4" vertex="1">
                    <mxGeometry x="564" y="70" width="100" height="60" as="geometry"/>
                </mxCell>
                <mxCell id="hp9sdmIWLMyYn5PrPFzk-8" value="开始/结束" style="strokeWidth=1;html=1;shape=mxgraph.flowchart.start_1;whiteSpace=wrap;fontFamily=阿里汉仪智能黑体;fontSource=https%3A%2F%2Fhellowebfonts.oss-cn-beijing.aliyuncs.com%2F698F3099-E62F-4C3B-B30A-04FB735069FE%2F202209%2F44C5C1037925EC78.ttf;fontSize=14;startSize=36;labelPosition=center;verticalLabelPosition=bottom;align=center;verticalAlign=top;" parent="hp9sdmIWLMyYn5PrPFzk-4" vertex="1">
                    <mxGeometry x="728" y="70" width="100" height="60" as="geometry"/>
                </mxCell>
                <mxCell id="hp9sdmIWLMyYn5PrPFzk-10" value="角色" style="shape=umlActor;verticalLabelPosition=bottom;verticalAlign=top;html=1;fontFamily=阿里汉仪智能黑体;fontSource=https%3A%2F%2Fhellowebfonts.oss-cn-beijing.aliyuncs.com%2F698F3099-E62F-4C3B-B30A-04FB735069FE%2F202209%2F44C5C1037925EC78.ttf;fontSize=14;startSize=36;strokeWidth=1;labelPosition=center;align=center;aspect=fixed;" parent="hp9sdmIWLMyYn5PrPFzk-4" vertex="1">
                    <mxGeometry x="107" y="200" width="30" height="60" as="geometry"/>
                </mxCell>
                <mxCell id="hp9sdmIWLMyYn5PrPFzk-11" value="数据库" style="strokeWidth=1;html=1;shape=mxgraph.flowchart.database;whiteSpace=wrap;fontFamily=阿里汉仪智能黑体;fontSource=https%3A%2F%2Fhellowebfonts.oss-cn-beijing.aliyuncs.com%2F698F3099-E62F-4C3B-B30A-04FB735069FE%2F202209%2F44C5C1037925EC78.ttf;fontSize=14;startSize=36;labelPosition=center;verticalLabelPosition=bottom;align=center;verticalAlign=top;aspect=fixed;" parent="hp9sdmIWLMyYn5PrPFzk-4" vertex="1">
                    <mxGeometry x="418" y="200" width="60" height="60" as="geometry"/>
                </mxCell>
                <mxCell id="hp9sdmIWLMyYn5PrPFzk-12" value="存储数据" style="strokeWidth=1;html=1;shape=mxgraph.flowchart.stored_data;whiteSpace=wrap;fontFamily=阿里汉仪智能黑体;fontSource=https%3A%2F%2Fhellowebfonts.oss-cn-beijing.aliyuncs.com%2F698F3099-E62F-4C3B-B30A-04FB735069FE%2F202209%2F44C5C1037925EC78.ttf;fontSize=14;startSize=36;labelPosition=center;verticalLabelPosition=bottom;align=center;verticalAlign=top;aspect=fixed;" parent="hp9sdmIWLMyYn5PrPFzk-4" vertex="1">
                    <mxGeometry x="558" y="200" width="100" height="60" as="geometry"/>
                </mxCell>
                <mxCell id="hp9sdmIWLMyYn5PrPFzk-13" value="内部存储器" style="shape=internalStorage;whiteSpace=wrap;html=1;dx=15;dy=15;rounded=1;arcSize=8;strokeWidth=1;fontFamily=阿里汉仪智能黑体;fontSource=https%3A%2F%2Fhellowebfonts.oss-cn-beijing.aliyuncs.com%2F698F3099-E62F-4C3B-B30A-04FB735069FE%2F202209%2F44C5C1037925EC78.ttf;fontSize=14;startSize=36;labelPosition=center;verticalLabelPosition=bottom;align=center;verticalAlign=top;aspect=fixed;" parent="hp9sdmIWLMyYn5PrPFzk-4" vertex="1">
                    <mxGeometry x="721" y="200" width="95" height="60" as="geometry"/>
                </mxCell>
                <mxCell id="hp9sdmIWLMyYn5PrPFzk-14" value="顺序数据" style="strokeWidth=1;html=1;shape=mxgraph.flowchart.sequential_data;whiteSpace=wrap;fontFamily=阿里汉仪智能黑体;fontSource=https%3A%2F%2Fhellowebfonts.oss-cn-beijing.aliyuncs.com%2F698F3099-E62F-4C3B-B30A-04FB735069FE%2F202209%2F44C5C1037925EC78.ttf;fontSize=14;startSize=36;labelPosition=center;verticalLabelPosition=bottom;align=center;verticalAlign=top;" parent="hp9sdmIWLMyYn5PrPFzk-4" vertex="1">
                    <mxGeometry x="898.5" y="200" width="60" height="60" as="geometry"/>
                </mxCell>
                <mxCell id="hp9sdmIWLMyYn5PrPFzk-15" value="直接数据" style="strokeWidth=1;html=1;shape=mxgraph.flowchart.direct_data;whiteSpace=wrap;fontFamily=阿里汉仪智能黑体;fontSource=https%3A%2F%2Fhellowebfonts.oss-cn-beijing.aliyuncs.com%2F698F3099-E62F-4C3B-B30A-04FB735069FE%2F202209%2F44C5C1037925EC78.ttf;fontSize=14;startSize=36;labelPosition=center;verticalLabelPosition=bottom;align=center;verticalAlign=top;aspect=fixed;" parent="hp9sdmIWLMyYn5PrPFzk-4" vertex="1">
                    <mxGeometry x="1038" y="200" width="100" height="60" as="geometry"/>
                </mxCell>
                <mxCell id="hp9sdmIWLMyYn5PrPFzk-16" value="手动输入" style="html=1;strokeWidth=1;shape=manualInput;whiteSpace=wrap;rounded=1;size=26;arcSize=11;fontFamily=阿里汉仪智能黑体;fontSource=https%3A%2F%2Fhellowebfonts.oss-cn-beijing.aliyuncs.com%2F698F3099-E62F-4C3B-B30A-04FB735069FE%2F202209%2F44C5C1037925EC78.ttf;fontSize=14;startSize=36;labelPosition=center;verticalLabelPosition=bottom;align=center;verticalAlign=top;" parent="hp9sdmIWLMyYn5PrPFzk-4" vertex="1">
                    <mxGeometry x="226" y="200" width="100" height="60" as="geometry"/>
                </mxCell>
                <mxCell id="hp9sdmIWLMyYn5PrPFzk-17" value="卡片" style="verticalLabelPosition=bottom;verticalAlign=top;html=1;shape=card;whiteSpace=wrap;size=20;arcSize=12;fontFamily=阿里汉仪智能黑体;fontSource=https%3A%2F%2Fhellowebfonts.oss-cn-beijing.aliyuncs.com%2F698F3099-E62F-4C3B-B30A-04FB735069FE%2F202209%2F44C5C1037925EC78.ttf;fontSize=14;startSize=36;strokeWidth=1;horizontal=1;labelPosition=center;align=center;" parent="hp9sdmIWLMyYn5PrPFzk-4" vertex="1">
                    <mxGeometry x="234" y="322.5" width="100" height="60" as="geometry"/>
                </mxCell>
                <mxCell id="hp9sdmIWLMyYn5PrPFzk-18" value="纸带" style="shape=tape;whiteSpace=wrap;html=1;strokeWidth=1;size=0.19;fontFamily=阿里汉仪智能黑体;fontSource=https%3A%2F%2Fhellowebfonts.oss-cn-beijing.aliyuncs.com%2F698F3099-E62F-4C3B-B30A-04FB735069FE%2F202209%2F44C5C1037925EC78.ttf;fontSize=14;startSize=36;labelPosition=center;verticalLabelPosition=bottom;align=center;verticalAlign=top;" parent="hp9sdmIWLMyYn5PrPFzk-4" vertex="1">
                    <mxGeometry x="396" y="322.5" width="100" height="60" as="geometry"/>
                </mxCell>
                <mxCell id="hp9sdmIWLMyYn5PrPFzk-19" value="延迟" style="strokeWidth=1;html=1;shape=mxgraph.flowchart.delay;whiteSpace=wrap;fontFamily=阿里汉仪智能黑体;fontSource=https%3A%2F%2Fhellowebfonts.oss-cn-beijing.aliyuncs.com%2F698F3099-E62F-4C3B-B30A-04FB735069FE%2F202209%2F44C5C1037925EC78.ttf;fontSize=14;startSize=36;labelPosition=center;verticalLabelPosition=bottom;align=center;verticalAlign=top;" parent="hp9sdmIWLMyYn5PrPFzk-4" vertex="1">
                    <mxGeometry x="558" y="322.5" width="100" height="60" as="geometry"/>
                </mxCell>
                <mxCell id="hp9sdmIWLMyYn5PrPFzk-20" value="显示内容" style="strokeWidth=1;html=1;shape=mxgraph.flowchart.display;whiteSpace=wrap;fontFamily=阿里汉仪智能黑体;fontSource=https%3A%2F%2Fhellowebfonts.oss-cn-beijing.aliyuncs.com%2F698F3099-E62F-4C3B-B30A-04FB735069FE%2F202209%2F44C5C1037925EC78.ttf;fontSize=14;startSize=36;labelPosition=center;verticalLabelPosition=bottom;align=center;verticalAlign=top;" parent="hp9sdmIWLMyYn5PrPFzk-4" vertex="1">
                    <mxGeometry x="720" y="322.5" width="100" height="60" as="geometry"/>
                </mxCell>
                <mxCell id="hp9sdmIWLMyYn5PrPFzk-21" value="手动操作" style="verticalLabelPosition=bottom;verticalAlign=top;html=1;shape=trapezoid;perimeter=trapezoidPerimeter;whiteSpace=wrap;size=0.23;arcSize=10;flipV=1;labelPosition=center;align=center;fontFamily=阿里汉仪智能黑体;fontSource=https%3A%2F%2Fhellowebfonts.oss-cn-beijing.aliyuncs.com%2F698F3099-E62F-4C3B-B30A-04FB735069FE%2F202209%2F44C5C1037925EC78.ttf;fontSize=14;startSize=36;strokeWidth=1;" parent="hp9sdmIWLMyYn5PrPFzk-4" vertex="1">
                    <mxGeometry x="72" y="330" width="100" height="60" as="geometry"/>
                </mxCell>
                <mxCell id="hp9sdmIWLMyYn5PrPFzk-22" value="页内引用" style="strokeWidth=1;html=1;shape=mxgraph.flowchart.start_2;whiteSpace=wrap;fontFamily=阿里汉仪智能黑体;fontSource=https%3A%2F%2Fhellowebfonts.oss-cn-beijing.aliyuncs.com%2F698F3099-E62F-4C3B-B30A-04FB735069FE%2F202209%2F44C5C1037925EC78.ttf;fontSize=14;startSize=36;labelPosition=center;verticalLabelPosition=bottom;align=center;verticalAlign=top;" parent="hp9sdmIWLMyYn5PrPFzk-4" vertex="1">
                    <mxGeometry x="235" y="455" width="70" height="65" as="geometry"/>
                </mxCell>
                <mxCell id="hp9sdmIWLMyYn5PrPFzk-23" value="跨页引用" style="verticalLabelPosition=bottom;verticalAlign=top;html=1;shape=offPageConnector;rounded=0;size=0.4;fontFamily=阿里汉仪智能黑体;fontSource=https%3A%2F%2Fhellowebfonts.oss-cn-beijing.aliyuncs.com%2F698F3099-E62F-4C3B-B30A-04FB735069FE%2F202209%2F44C5C1037925EC78.ttf;fontSize=14;startSize=36;strokeWidth=1;labelPosition=center;align=center;" parent="hp9sdmIWLMyYn5PrPFzk-4" vertex="1">
                    <mxGeometry x="395" y="450" width="70" height="75" as="geometry"/>
                </mxCell>
                <mxCell id="hp9sdmIWLMyYn5PrPFzk-24" value="连接线" style="endArrow=classic;html=1;rounded=0;fontFamily=阿里汉仪智能黑体;fontSource=https%3A%2F%2Fhellowebfonts.oss-cn-beijing.aliyuncs.com%2F698F3099-E62F-4C3B-B30A-04FB735069FE%2F202209%2F44C5C1037925EC78.ttf;fontSize=14;startSize=36;strokeWidth=1;labelPosition=center;verticalLabelPosition=bottom;align=center;verticalAlign=top;" parent="hp9sdmIWLMyYn5PrPFzk-4" edge="1">
                    <mxGeometry width="50" height="50" relative="1" as="geometry">
                        <mxPoint x="728" y="515" as="sourcePoint"/>
                        <mxPoint x="778" y="465" as="targetPoint"/>
                    </mxGeometry>
                </mxCell>
                <mxCell id="hp9sdmIWLMyYn5PrPFzk-25" value="注释" style="shape=note;strokeWidth=1;fontSize=14;size=20;whiteSpace=wrap;html=1;fillColor=#FFFFFF;strokeColor=#1A1A1A;shadow=0;fontFamily=阿里汉仪智能黑体;fontSource=https%3A%2F%2Fhellowebfonts.oss-cn-beijing.aliyuncs.com%2F698F3099-E62F-4C3B-B30A-04FB735069FE%2F202209%2F44C5C1037925EC78.ttf;startSize=36;labelPosition=center;verticalLabelPosition=bottom;align=center;verticalAlign=top;" parent="hp9sdmIWLMyYn5PrPFzk-4" vertex="1">
                    <mxGeometry x="1063" y="45" width="70" height="85" as="geometry"/>
                </mxCell>
                <mxCell id="RjWPX_aj4DLVASRLmrFs-1" value="子流程" style="shape=process;whiteSpace=wrap;html=1;backgroundOutline=1;rounded=1;shadow=0;fontFamily=阿里汉仪智能黑体;fontSource=https%3A%2F%2Fhellowebfonts.oss-cn-beijing.aliyuncs.com%2F698F3099-E62F-4C3B-B30A-04FB735069FE%2F202209%2F44C5C1037925EC78.ttf;fontSize=14;strokeColor=#1A1A1A;fillColor=#FFFFFF;labelPosition=center;verticalLabelPosition=bottom;align=center;verticalAlign=top;" parent="hp9sdmIWLMyYn5PrPFzk-4" vertex="1">
                    <mxGeometry x="392" y="70" width="120" height="60" as="geometry"/>
                </mxCell>
                <mxCell id="RjWPX_aj4DLVASRLmrFs-3" value="准备" style="shape=hexagon;perimeter=hexagonPerimeter2;whiteSpace=wrap;html=1;fixedSize=1;fontFamily=阿里汉仪智能黑体;fontSource=https%3A%2F%2Fhellowebfonts.oss-cn-beijing.aliyuncs.com%2F698F3099-E62F-4C3B-B30A-04FB735069FE%2F202209%2F44C5C1037925EC78.ttf;fontSize=14;startSize=36;strokeColor=#1A1A1A;strokeWidth=1;fillColor=#FFFFFF;labelPosition=center;verticalLabelPosition=bottom;align=center;verticalAlign=top;" parent="hp9sdmIWLMyYn5PrPFzk-4" vertex="1">
                    <mxGeometry x="877" y="322.5" width="110" height="70" as="geometry"/>
                </mxCell>
                <mxCell id="RjWPX_aj4DLVASRLmrFs-4" value="循环条件" style="strokeWidth=1;html=1;shape=mxgraph.flowchart.loop_limit;whiteSpace=wrap;fontFamily=阿里汉仪智能黑体;fontSource=https%3A%2F%2Fhellowebfonts.oss-cn-beijing.aliyuncs.com%2F698F3099-E62F-4C3B-B30A-04FB735069FE%2F202209%2F44C5C1037925EC78.ttf;fontSize=14;startSize=36;fillColor=#FFFFFF;labelPosition=center;verticalLabelPosition=bottom;align=center;verticalAlign=top;" parent="hp9sdmIWLMyYn5PrPFzk-4" vertex="1">
                    <mxGeometry x="882" y="70" width="100" height="60" as="geometry"/>
                </mxCell>
                <mxCell id="RjWPX_aj4DLVASRLmrFs-5" value="并行模式" style="verticalLabelPosition=bottom;verticalAlign=top;html=1;shape=mxgraph.flowchart.parallel_mode;pointerEvents=1;fontFamily=阿里汉仪智能黑体;fontSource=https%3A%2F%2Fhellowebfonts.oss-cn-beijing.aliyuncs.com%2F698F3099-E62F-4C3B-B30A-04FB735069FE%2F202209%2F44C5C1037925EC78.ttf;fontSize=14;startSize=36;strokeColor=#1A1A1A;strokeWidth=1;fillColor=#FFFFFF;labelPosition=center;align=center;" parent="hp9sdmIWLMyYn5PrPFzk-4" vertex="1">
                    <mxGeometry x="543" y="467.5" width="95" height="40" as="geometry"/>
                </mxCell>
            </root>
        </mxGraphModel>
    </diagram>
    <diagram id="0Ow7JCT5GjLpRwJ48kYp" name="符号的使用">
        <mxGraphModel dx="2472" dy="1776" grid="1" gridSize="10" guides="1" tooltips="1" connect="1" arrows="1" fold="1" page="1" pageScale="1" pageWidth="827" pageHeight="1169" math="0" shadow="0">
            <root>
                <mxCell id="0"/>
                <mxCell id="1" parent="0"/>
                <mxCell id="a0KqODcTcx4Mew9SkHHI-1" style="edgeStyle=orthogonalEdgeStyle;rounded=0;orthogonalLoop=1;jettySize=auto;html=1;shadow=0;fontFamily=阿里汉仪智能黑体;fontSource=https%3A%2F%2Fhellowebfonts.oss-cn-beijing.aliyuncs.com%2F698F3099-E62F-4C3B-B30A-04FB735069FE%2F202209%2F44C5C1037925EC78.ttf;fontSize=14;endArrow=classic;endFill=1;labelBorderColor=none;" parent="1" source="a0KqODcTcx4Mew9SkHHI-2" edge="1">
                    <mxGeometry relative="1" as="geometry">
                        <mxPoint x="-680" y="-80" as="targetPoint"/>
                    </mxGeometry>
                </mxCell>
                <mxCell id="a0KqODcTcx4Mew9SkHHI-2" value="开始" style="strokeWidth=1;html=1;shape=mxgraph.flowchart.start_1;whiteSpace=wrap;rounded=1;shadow=0;fontFamily=阿里汉仪智能黑体;fontSource=https%3A%2F%2Fhellowebfonts.oss-cn-beijing.aliyuncs.com%2F698F3099-E62F-4C3B-B30A-04FB735069FE%2F202209%2F44C5C1037925EC78.ttf;fontSize=14;fillColor=#FFFFFF;labelBorderColor=none;" parent="1" vertex="1">
                    <mxGeometry x="-850" y="-110" width="100" height="60" as="geometry"/>
                </mxCell>
                <mxCell id="a0KqODcTcx4Mew9SkHHI-3" value="&lt;h1&gt;开始&lt;/h1&gt;&lt;p&gt;表示开始/结束；一个流程图必须有的。&lt;/p&gt;" style="text;html=1;strokeColor=none;fillColor=none;spacing=5;spacingTop=-20;whiteSpace=wrap;overflow=hidden;rounded=0;shadow=0;fontFamily=阿里汉仪智能黑体;fontSource=https%3A%2F%2Fhellowebfonts.oss-cn-beijing.aliyuncs.com%2F698F3099-E62F-4C3B-B30A-04FB735069FE%2F202209%2F44C5C1037925EC78.ttf;fontSize=14;" parent="1" vertex="1">
                    <mxGeometry x="-550" y="-140" width="190" height="120" as="geometry"/>
                </mxCell>
                <mxCell id="a0KqODcTcx4Mew9SkHHI-4" style="edgeStyle=orthogonalEdgeStyle;rounded=0;orthogonalLoop=1;jettySize=auto;html=1;shadow=0;fontFamily=阿里汉仪智能黑体;fontSource=https%3A%2F%2Fhellowebfonts.oss-cn-beijing.aliyuncs.com%2F698F3099-E62F-4C3B-B30A-04FB735069FE%2F202209%2F44C5C1037925EC78.ttf;fontSize=14;endArrow=classic;endFill=1;labelBorderColor=none;" parent="1" source="a0KqODcTcx4Mew9SkHHI-5" target="a0KqODcTcx4Mew9SkHHI-6" edge="1">
                    <mxGeometry relative="1" as="geometry"/>
                </mxCell>
                <mxCell id="a0KqODcTcx4Mew9SkHHI-5" value="点击新增" style="rounded=1;whiteSpace=wrap;html=1;shadow=0;fontFamily=阿里汉仪智能黑体;fontSource=https%3A%2F%2Fhellowebfonts.oss-cn-beijing.aliyuncs.com%2F698F3099-E62F-4C3B-B30A-04FB735069FE%2F202209%2F44C5C1037925EC78.ttf;fontSize=14;strokeColor=#1A1A1A;fillColor=#FFFFFF;labelBorderColor=none;" parent="1" vertex="1">
                    <mxGeometry x="-910" y="40" width="120" height="60" as="geometry"/>
                </mxCell>
                <mxCell id="a0KqODcTcx4Mew9SkHHI-6" value="出现弹窗" style="rounded=0;whiteSpace=wrap;html=1;shadow=0;fontFamily=阿里汉仪智能黑体;fontSource=https%3A%2F%2Fhellowebfonts.oss-cn-beijing.aliyuncs.com%2F698F3099-E62F-4C3B-B30A-04FB735069FE%2F202209%2F44C5C1037925EC78.ttf;fontSize=14;strokeColor=#1A1A1A;fillColor=#FFFFFF;labelBorderColor=none;" parent="1" vertex="1">
                    <mxGeometry x="-730" y="40" width="120" height="60" as="geometry"/>
                </mxCell>
                <mxCell id="a0KqODcTcx4Mew9SkHHI-7" value="&lt;h1&gt;操作&lt;/h1&gt;&lt;p&gt;表示操作、事件；&lt;/p&gt;" style="text;html=1;strokeColor=none;fillColor=none;spacing=5;spacingTop=-20;whiteSpace=wrap;overflow=hidden;rounded=0;shadow=0;fontFamily=阿里汉仪智能黑体;fontSource=https%3A%2F%2Fhellowebfonts.oss-cn-beijing.aliyuncs.com%2F698F3099-E62F-4C3B-B30A-04FB735069FE%2F202209%2F44C5C1037925EC78.ttf;fontSize=14;" parent="1" vertex="1">
                    <mxGeometry x="-550" y="10" width="190" height="120" as="geometry"/>
                </mxCell>
                <mxCell id="a0KqODcTcx4Mew9SkHHI-8" value="Y" style="edgeStyle=orthogonalEdgeStyle;rounded=0;orthogonalLoop=1;jettySize=auto;html=1;shadow=0;fontFamily=阿里汉仪智能黑体;fontSource=https%3A%2F%2Fhellowebfonts.oss-cn-beijing.aliyuncs.com%2F698F3099-E62F-4C3B-B30A-04FB735069FE%2F202209%2F44C5C1037925EC78.ttf;fontSize=14;endArrow=classic;endFill=1;labelBorderColor=none;" parent="1" source="a0KqODcTcx4Mew9SkHHI-10" edge="1">
                    <mxGeometry relative="1" as="geometry">
                        <mxPoint x="-850" y="295" as="targetPoint"/>
                    </mxGeometry>
                </mxCell>
                <mxCell id="a0KqODcTcx4Mew9SkHHI-9" value="N" style="edgeStyle=orthogonalEdgeStyle;rounded=0;orthogonalLoop=1;jettySize=auto;html=1;shadow=0;fontFamily=阿里汉仪智能黑体;fontSource=https%3A%2F%2Fhellowebfonts.oss-cn-beijing.aliyuncs.com%2F698F3099-E62F-4C3B-B30A-04FB735069FE%2F202209%2F44C5C1037925EC78.ttf;fontSize=14;endArrow=classic;endFill=1;labelBorderColor=none;" parent="1" source="a0KqODcTcx4Mew9SkHHI-10" edge="1">
                    <mxGeometry relative="1" as="geometry">
                        <mxPoint x="-700" y="295" as="targetPoint"/>
                    </mxGeometry>
                </mxCell>
                <mxCell id="a0KqODcTcx4Mew9SkHHI-10" value="是否正确" style="strokeWidth=1;html=1;shape=mxgraph.flowchart.decision;whiteSpace=wrap;rounded=1;shadow=0;fontFamily=阿里汉仪智能黑体;fontSource=https%3A%2F%2Fhellowebfonts.oss-cn-beijing.aliyuncs.com%2F698F3099-E62F-4C3B-B30A-04FB735069FE%2F202209%2F44C5C1037925EC78.ttf;fontSize=14;fillColor=#FFFFFF;labelBorderColor=none;" parent="1" vertex="1">
                    <mxGeometry x="-820" y="185" width="100" height="100" as="geometry"/>
                </mxCell>
                <mxCell id="a0KqODcTcx4Mew9SkHHI-11" value="&lt;h1&gt;判断&lt;/h1&gt;&lt;p&gt;表示决策事件；出现之后会出现分支&lt;/p&gt;" style="text;html=1;strokeColor=none;fillColor=none;spacing=5;spacingTop=-20;whiteSpace=wrap;overflow=hidden;rounded=0;shadow=0;fontFamily=阿里汉仪智能黑体;fontSource=https%3A%2F%2Fhellowebfonts.oss-cn-beijing.aliyuncs.com%2F698F3099-E62F-4C3B-B30A-04FB735069FE%2F202209%2F44C5C1037925EC78.ttf;fontSize=14;" parent="1" vertex="1">
                    <mxGeometry x="-550" y="180" width="190" height="120" as="geometry"/>
                </mxCell>
                <mxCell id="a0KqODcTcx4Mew9SkHHI-12" style="edgeStyle=orthogonalEdgeStyle;rounded=0;orthogonalLoop=1;jettySize=auto;html=1;shadow=0;fontFamily=阿里汉仪智能黑体;fontSource=https%3A%2F%2Fhellowebfonts.oss-cn-beijing.aliyuncs.com%2F698F3099-E62F-4C3B-B30A-04FB735069FE%2F202209%2F44C5C1037925EC78.ttf;fontSize=14;endArrow=classic;endFill=1;strokeWidth=1;" parent="1" source="a0KqODcTcx4Mew9SkHHI-13" target="a0KqODcTcx4Mew9SkHHI-15" edge="1">
                    <mxGeometry relative="1" as="geometry">
                        <mxPoint x="-70" y="245" as="targetPoint"/>
                    </mxGeometry>
                </mxCell>
                <mxCell id="a0KqODcTcx4Mew9SkHHI-13" value="列表数据" style="shape=parallelogram;html=1;strokeWidth=1;perimeter=parallelogramPerimeter;whiteSpace=wrap;rounded=1;arcSize=12;size=0.23;shadow=0;fontFamily=阿里汉仪智能黑体;fontSource=https%3A%2F%2Fhellowebfonts.oss-cn-beijing.aliyuncs.com%2F698F3099-E62F-4C3B-B30A-04FB735069FE%2F202209%2F44C5C1037925EC78.ttf;fontSize=14;fillColor=#FFFFFF;" parent="1" vertex="1">
                    <mxGeometry x="-260" y="215" width="100" height="60" as="geometry"/>
                </mxCell>
                <mxCell id="a0KqODcTcx4Mew9SkHHI-14" value="&lt;h1&gt;数据&lt;/h1&gt;&lt;p&gt;表示各种数据；常见于场景中某个操作的前置数据，例子：表格加载&lt;/p&gt;" style="text;html=1;strokeColor=none;fillColor=none;spacing=5;spacingTop=-20;whiteSpace=wrap;overflow=hidden;rounded=0;shadow=0;fontFamily=阿里汉仪智能黑体;fontSource=https%3A%2F%2Fhellowebfonts.oss-cn-beijing.aliyuncs.com%2F698F3099-E62F-4C3B-B30A-04FB735069FE%2F202209%2F44C5C1037925EC78.ttf;fontSize=14;" parent="1" vertex="1">
                    <mxGeometry x="80" y="175" width="190" height="120" as="geometry"/>
                </mxCell>
                <mxCell id="a0KqODcTcx4Mew9SkHHI-15" value="渲染数据" style="rounded=0;whiteSpace=wrap;html=1;shadow=0;fontFamily=阿里汉仪智能黑体;fontSource=https%3A%2F%2Fhellowebfonts.oss-cn-beijing.aliyuncs.com%2F698F3099-E62F-4C3B-B30A-04FB735069FE%2F202209%2F44C5C1037925EC78.ttf;fontSize=14;strokeColor=#1A1A1A;fillColor=#FFFFFF;strokeWidth=1;" parent="1" vertex="1">
                    <mxGeometry x="-100" y="215" width="120" height="60" as="geometry"/>
                </mxCell>
                <mxCell id="a0KqODcTcx4Mew9SkHHI-16" style="edgeStyle=orthogonalEdgeStyle;rounded=0;orthogonalLoop=1;jettySize=auto;html=1;shadow=0;fontFamily=阿里汉仪智能黑体;fontSource=https%3A%2F%2Fhellowebfonts.oss-cn-beijing.aliyuncs.com%2F698F3099-E62F-4C3B-B30A-04FB735069FE%2F202209%2F44C5C1037925EC78.ttf;fontSize=14;endArrow=classic;endFill=1;labelBorderColor=none;" parent="1" source="a0KqODcTcx4Mew9SkHHI-19" target="a0KqODcTcx4Mew9SkHHI-22" edge="1">
                    <mxGeometry relative="1" as="geometry">
                        <Array as="points">
                            <mxPoint x="-670" y="395"/>
                            <mxPoint x="-850" y="395"/>
                        </Array>
                    </mxGeometry>
                </mxCell>
                <mxCell id="a0KqODcTcx4Mew9SkHHI-17" value="True" style="edgeLabel;html=1;align=center;verticalAlign=middle;resizable=0;points=[];fontSize=14;fontFamily=阿里汉仪智能黑体;labelBorderColor=none;fontSource=https%3A%2F%2Fhellowebfonts.oss-cn-beijing.aliyuncs.com%2F698F3099-E62F-4C3B-B30A-04FB735069FE%2F202209%2F44C5C1037925EC78.ttf;" parent="a0KqODcTcx4Mew9SkHHI-16" vertex="1" connectable="0">
                    <mxGeometry x="-0.2231" relative="1" as="geometry">
                        <mxPoint y="-20" as="offset"/>
                    </mxGeometry>
                </mxCell>
                <mxCell id="a0KqODcTcx4Mew9SkHHI-18" value="False" style="edgeStyle=orthogonalEdgeStyle;rounded=0;orthogonalLoop=1;jettySize=auto;html=1;shadow=0;fontFamily=阿里汉仪智能黑体;fontSource=https%3A%2F%2Fhellowebfonts.oss-cn-beijing.aliyuncs.com%2F698F3099-E62F-4C3B-B30A-04FB735069FE%2F202209%2F44C5C1037925EC78.ttf;fontSize=14;endArrow=classic;endFill=1;labelBorderColor=none;" parent="1" source="a0KqODcTcx4Mew9SkHHI-19" edge="1">
                    <mxGeometry relative="1" as="geometry">
                        <mxPoint x="-670" y="555" as="targetPoint"/>
                    </mxGeometry>
                </mxCell>
                <mxCell id="a0KqODcTcx4Mew9SkHHI-19" value="循环条件：10次" style="strokeWidth=1;html=1;shape=mxgraph.flowchart.loop_limit;whiteSpace=wrap;rounded=1;shadow=0;fontFamily=阿里汉仪智能黑体;fontSource=https%3A%2F%2Fhellowebfonts.oss-cn-beijing.aliyuncs.com%2F698F3099-E62F-4C3B-B30A-04FB735069FE%2F202209%2F44C5C1037925EC78.ttf;fontSize=14;fillColor=#FFFFFF;labelBorderColor=none;" parent="1" vertex="1">
                    <mxGeometry x="-720" y="435" width="100" height="60" as="geometry"/>
                </mxCell>
                <mxCell id="a0KqODcTcx4Mew9SkHHI-20" value="&lt;h1&gt;循环&lt;/h1&gt;&lt;p&gt;表示循环条件；例子：列表数据，一次加载10条数据&lt;/p&gt;" style="text;html=1;strokeColor=none;fillColor=none;spacing=5;spacingTop=-20;whiteSpace=wrap;overflow=hidden;rounded=0;shadow=0;fontFamily=阿里汉仪智能黑体;fontSource=https%3A%2F%2Fhellowebfonts.oss-cn-beijing.aliyuncs.com%2F698F3099-E62F-4C3B-B30A-04FB735069FE%2F202209%2F44C5C1037925EC78.ttf;fontSize=14;" parent="1" vertex="1">
                    <mxGeometry x="-550" y="405" width="190" height="120" as="geometry"/>
                </mxCell>
                <mxCell id="a0KqODcTcx4Mew9SkHHI-21" style="edgeStyle=orthogonalEdgeStyle;rounded=0;orthogonalLoop=1;jettySize=auto;html=1;shadow=0;fontFamily=阿里汉仪智能黑体;fontSource=https%3A%2F%2Fhellowebfonts.oss-cn-beijing.aliyuncs.com%2F698F3099-E62F-4C3B-B30A-04FB735069FE%2F202209%2F44C5C1037925EC78.ttf;fontSize=14;endArrow=classic;endFill=1;labelBorderColor=none;" parent="1" source="a0KqODcTcx4Mew9SkHHI-22" target="a0KqODcTcx4Mew9SkHHI-19" edge="1">
                    <mxGeometry relative="1" as="geometry"/>
                </mxCell>
                <mxCell id="a0KqODcTcx4Mew9SkHHI-22" value="获取一次列表数据" style="rounded=0;whiteSpace=wrap;html=1;shadow=0;fontFamily=阿里汉仪智能黑体;fontSource=https%3A%2F%2Fhellowebfonts.oss-cn-beijing.aliyuncs.com%2F698F3099-E62F-4C3B-B30A-04FB735069FE%2F202209%2F44C5C1037925EC78.ttf;fontSize=14;strokeColor=#1A1A1A;fillColor=#FFFFFF;labelBorderColor=none;" parent="1" vertex="1">
                    <mxGeometry x="-910" y="435" width="120" height="60" as="geometry"/>
                </mxCell>
                <mxCell id="a0KqODcTcx4Mew9SkHHI-23" style="edgeStyle=orthogonalEdgeStyle;rounded=0;orthogonalLoop=1;jettySize=auto;html=1;shadow=0;fontFamily=阿里汉仪智能黑体;fontSource=https%3A%2F%2Fhellowebfonts.oss-cn-beijing.aliyuncs.com%2F698F3099-E62F-4C3B-B30A-04FB735069FE%2F202209%2F44C5C1037925EC78.ttf;fontSize=14;endArrow=classic;endFill=1;labelBorderColor=none;" parent="1" source="a0KqODcTcx4Mew9SkHHI-24" edge="1">
                    <mxGeometry relative="1" as="geometry">
                        <mxPoint x="-20" y="540" as="targetPoint"/>
                    </mxGeometry>
                </mxCell>
                <mxCell id="a0KqODcTcx4Mew9SkHHI-24" value="新增应用" style="shape=process;whiteSpace=wrap;html=1;backgroundOutline=1;rounded=1;shadow=0;fontFamily=阿里汉仪智能黑体;fontSource=https%3A%2F%2Fhellowebfonts.oss-cn-beijing.aliyuncs.com%2F698F3099-E62F-4C3B-B30A-04FB735069FE%2F202209%2F44C5C1037925EC78.ttf;fontSize=14;strokeColor=#1A1A1A;fillColor=#FFFFFF;labelBorderColor=none;" parent="1" vertex="1">
                    <mxGeometry x="-80" y="420" width="120" height="60" as="geometry"/>
                </mxCell>
                <mxCell id="a0KqODcTcx4Mew9SkHHI-25" value="&lt;h1&gt;子流程&lt;/h1&gt;&lt;p&gt;表示另外一个完整的流程；常用于一个流程中嵌套了另外一个通用的逻辑而不是一个简单的操作。例子：跳到另一个页面&lt;/p&gt;" style="text;html=1;strokeColor=none;fillColor=none;spacing=5;spacingTop=-20;whiteSpace=wrap;overflow=hidden;rounded=0;shadow=0;fontFamily=阿里汉仪智能黑体;fontSource=https%3A%2F%2Fhellowebfonts.oss-cn-beijing.aliyuncs.com%2F698F3099-E62F-4C3B-B30A-04FB735069FE%2F202209%2F44C5C1037925EC78.ttf;fontSize=14;" parent="1" vertex="1">
                    <mxGeometry x="100" y="390" width="190" height="150" as="geometry"/>
                </mxCell>
                <mxCell id="a0KqODcTcx4Mew9SkHHI-26" style="edgeStyle=orthogonalEdgeStyle;rounded=0;orthogonalLoop=1;jettySize=auto;html=1;shadow=0;fontFamily=阿里汉仪智能黑体;fontSource=https%3A%2F%2Fhellowebfonts.oss-cn-beijing.aliyuncs.com%2F698F3099-E62F-4C3B-B30A-04FB735069FE%2F202209%2F44C5C1037925EC78.ttf;fontSize=14;endArrow=classic;endFill=1;labelBorderColor=none;" parent="1" source="a0KqODcTcx4Mew9SkHHI-27" target="a0KqODcTcx4Mew9SkHHI-24" edge="1">
                    <mxGeometry relative="1" as="geometry"/>
                </mxCell>
                <mxCell id="a0KqODcTcx4Mew9SkHHI-27" value="跳到应用页" style="rounded=0;whiteSpace=wrap;html=1;shadow=0;fontFamily=阿里汉仪智能黑体;fontSource=https%3A%2F%2Fhellowebfonts.oss-cn-beijing.aliyuncs.com%2F698F3099-E62F-4C3B-B30A-04FB735069FE%2F202209%2F44C5C1037925EC78.ttf;fontSize=14;strokeColor=#1A1A1A;fillColor=#FFFFFF;labelBorderColor=none;" parent="1" vertex="1">
                    <mxGeometry x="-260" y="420" width="120" height="60" as="geometry"/>
                </mxCell>
                <mxCell id="UCKZ2Q_eI1I-sj47isk2-4" style="edgeStyle=orthogonalEdgeStyle;rounded=0;orthogonalLoop=1;jettySize=auto;html=1;strokeWidth=1;fontFamily=阿里汉仪智能黑体;fontSource=https%3A%2F%2Fhellowebfonts.oss-cn-beijing.aliyuncs.com%2F698F3099-E62F-4C3B-B30A-04FB735069FE%2F202209%2F44C5C1037925EC78.ttf;" parent="1" source="UCKZ2Q_eI1I-sj47isk2-1" edge="1">
                    <mxGeometry relative="1" as="geometry">
                        <mxPoint x="-30" y="147.5" as="targetPoint"/>
                    </mxGeometry>
                </mxCell>
                <mxCell id="UCKZ2Q_eI1I-sj47isk2-1" value="输入账号密码" style="html=1;strokeWidth=1;shape=manualInput;whiteSpace=wrap;rounded=1;size=26;arcSize=11;fontSize=14;fontFamily=阿里汉仪智能黑体;fontSource=https%3A%2F%2Fhellowebfonts.oss-cn-beijing.aliyuncs.com%2F698F3099-E62F-4C3B-B30A-04FB735069FE%2F202209%2F44C5C1037925EC78.ttf;" parent="1" vertex="1">
                    <mxGeometry x="-80" y="37.5" width="100" height="60" as="geometry"/>
                </mxCell>
                <mxCell id="UCKZ2Q_eI1I-sj47isk2-3" style="edgeStyle=orthogonalEdgeStyle;rounded=0;orthogonalLoop=1;jettySize=auto;html=1;fontSize=14;fontFamily=阿里汉仪智能黑体;fontSource=https%3A%2F%2Fhellowebfonts.oss-cn-beijing.aliyuncs.com%2F698F3099-E62F-4C3B-B30A-04FB735069FE%2F202209%2F44C5C1037925EC78.ttf;strokeWidth=1;" parent="1" source="UCKZ2Q_eI1I-sj47isk2-2" target="UCKZ2Q_eI1I-sj47isk2-1" edge="1">
                    <mxGeometry relative="1" as="geometry"/>
                </mxCell>
                <mxCell id="UCKZ2Q_eI1I-sj47isk2-2" value="打开弹窗" style="rounded=0;whiteSpace=wrap;html=1;shadow=0;fontFamily=阿里汉仪智能黑体;fontSource=https%3A%2F%2Fhellowebfonts.oss-cn-beijing.aliyuncs.com%2F698F3099-E62F-4C3B-B30A-04FB735069FE%2F202209%2F44C5C1037925EC78.ttf;fontSize=14;strokeColor=#1A1A1A;fillColor=#FFFFFF;strokeWidth=1;" parent="1" vertex="1">
                    <mxGeometry x="-260" y="37.5" width="120" height="60" as="geometry"/>
                </mxCell>
                <mxCell id="UCKZ2Q_eI1I-sj47isk2-5" value="&lt;h1&gt;表单类&lt;/h1&gt;&lt;p&gt;表示手动输入内容；常用于键盘输入的场景。例子：填写表单&lt;/p&gt;" style="text;html=1;strokeColor=none;fillColor=none;spacing=5;spacingTop=-20;whiteSpace=wrap;overflow=hidden;rounded=0;shadow=0;fontFamily=阿里汉仪智能黑体;fontSource=https%3A%2F%2Fhellowebfonts.oss-cn-beijing.aliyuncs.com%2F698F3099-E62F-4C3B-B30A-04FB735069FE%2F202209%2F44C5C1037925EC78.ttf;fontSize=14;" parent="1" vertex="1">
                    <mxGeometry x="90" y="-7.5" width="190" height="150" as="geometry"/>
                </mxCell>
                <mxCell id="zqthRXL9cf5ADTUJQYBn-1" value="&lt;h1&gt;顺序结构&lt;/h1&gt;&lt;p&gt;&lt;span style=&quot;color: rgb(51, 51, 51); font-size: 16px; orphans: 4; background-color: rgb(255, 255, 255);&quot;&gt;这种结构最简单，各个步骤是按先后顺序执行的&lt;/span&gt;&lt;br&gt;&lt;/p&gt;" style="text;html=1;strokeColor=none;fillColor=none;spacing=5;spacingTop=-20;whiteSpace=wrap;overflow=hidden;rounded=0;shadow=0;fontFamily=阿里汉仪智能黑体;fontSource=https%3A%2F%2Fhellowebfonts.oss-cn-beijing.aliyuncs.com%2F698F3099-E62F-4C3B-B30A-04FB735069FE%2F202209%2F44C5C1037925EC78.ttf;fontSize=14;" parent="1" vertex="1">
                    <mxGeometry x="540" y="-12.5" width="230" height="137.5" as="geometry"/>
                </mxCell>
                <mxCell id="zqthRXL9cf5ADTUJQYBn-2" value="&lt;h1&gt;选择结构&lt;/h1&gt;&lt;p&gt;&lt;span style=&quot;color: rgb(51, 51, 51); font-size: 16px; orphans: 4; background-color: rgb(255, 255, 255);&quot;&gt;选择结构又称分支结构，用于判断给定的条件，根据判断的结果判断某些条件，根据判断的结果来控制程序的流程。&lt;/span&gt;&lt;br&gt;&lt;/p&gt;" style="text;html=1;strokeColor=none;fillColor=none;spacing=5;spacingTop=-20;whiteSpace=wrap;overflow=hidden;rounded=0;shadow=0;fontFamily=阿里汉仪智能黑体;fontSource=https%3A%2F%2Fhellowebfonts.oss-cn-beijing.aliyuncs.com%2F698F3099-E62F-4C3B-B30A-04FB735069FE%2F202209%2F44C5C1037925EC78.ttf;fontSize=14;" parent="1" vertex="1">
                    <mxGeometry x="880" y="-12.5" width="260" height="147.5" as="geometry"/>
                </mxCell>
                <mxCell id="zqthRXL9cf5ADTUJQYBn-4" value="&lt;h1&gt;循环结构&lt;/h1&gt;&lt;p&gt;&lt;span style=&quot;color: rgb(51, 51, 51); font-size: 16px; orphans: 4; background-color: rgb(255, 255, 255);&quot;&gt;循环结构又称为重复结构，指在程序中需要反复执行某个功能而设置的一种程序结构。&lt;/span&gt;&lt;br&gt;&lt;/p&gt;" style="text;html=1;strokeColor=none;fillColor=none;spacing=5;spacingTop=-20;whiteSpace=wrap;overflow=hidden;rounded=0;shadow=0;fontFamily=阿里汉仪智能黑体;fontSource=https%3A%2F%2Fhellowebfonts.oss-cn-beijing.aliyuncs.com%2F698F3099-E62F-4C3B-B30A-04FB735069FE%2F202209%2F44C5C1037925EC78.ttf;fontSize=14;" parent="1" vertex="1">
                    <mxGeometry x="1321" y="-12.5" width="229" height="120" as="geometry"/>
                </mxCell>
                <mxCell id="zqthRXL9cf5ADTUJQYBn-6" style="edgeStyle=orthogonalEdgeStyle;rounded=0;orthogonalLoop=1;jettySize=auto;html=1;fontFamily=阿里汉仪智能黑体;fontSource=https%3A%2F%2Fhellowebfonts.oss-cn-beijing.aliyuncs.com%2F698F3099-E62F-4C3B-B30A-04FB735069FE%2F202209%2F44C5C1037925EC78.ttf;" parent="1" target="zqthRXL9cf5ADTUJQYBn-7" edge="1">
                    <mxGeometry relative="1" as="geometry">
                        <mxPoint x="600" y="195" as="targetPoint"/>
                        <mxPoint x="600" y="120" as="sourcePoint"/>
                    </mxGeometry>
                </mxCell>
                <mxCell id="zqthRXL9cf5ADTUJQYBn-9" style="edgeStyle=orthogonalEdgeStyle;rounded=0;orthogonalLoop=1;jettySize=auto;html=1;fontSize=16;fontFamily=阿里汉仪智能黑体;fontSource=https%3A%2F%2Fhellowebfonts.oss-cn-beijing.aliyuncs.com%2F698F3099-E62F-4C3B-B30A-04FB735069FE%2F202209%2F44C5C1037925EC78.ttf;" parent="1" source="zqthRXL9cf5ADTUJQYBn-7" target="zqthRXL9cf5ADTUJQYBn-8" edge="1">
                    <mxGeometry relative="1" as="geometry"/>
                </mxCell>
                <mxCell id="zqthRXL9cf5ADTUJQYBn-7" value="步骤一" style="rounded=0;whiteSpace=wrap;html=1;fontSize=16;fontFamily=阿里汉仪智能黑体;fontSource=https%3A%2F%2Fhellowebfonts.oss-cn-beijing.aliyuncs.com%2F698F3099-E62F-4C3B-B30A-04FB735069FE%2F202209%2F44C5C1037925EC78.ttf;" parent="1" vertex="1">
                    <mxGeometry x="540" y="205" width="120" height="60" as="geometry"/>
                </mxCell>
                <mxCell id="zqthRXL9cf5ADTUJQYBn-11" style="edgeStyle=orthogonalEdgeStyle;rounded=0;orthogonalLoop=1;jettySize=auto;html=1;fontSize=16;fontFamily=阿里汉仪智能黑体;fontSource=https%3A%2F%2Fhellowebfonts.oss-cn-beijing.aliyuncs.com%2F698F3099-E62F-4C3B-B30A-04FB735069FE%2F202209%2F44C5C1037925EC78.ttf;" parent="1" source="zqthRXL9cf5ADTUJQYBn-8" target="zqthRXL9cf5ADTUJQYBn-10" edge="1">
                    <mxGeometry relative="1" as="geometry"/>
                </mxCell>
                <mxCell id="zqthRXL9cf5ADTUJQYBn-8" value="步骤二" style="rounded=0;whiteSpace=wrap;html=1;fontSize=16;fontFamily=阿里汉仪智能黑体;fontSource=https%3A%2F%2Fhellowebfonts.oss-cn-beijing.aliyuncs.com%2F698F3099-E62F-4C3B-B30A-04FB735069FE%2F202209%2F44C5C1037925EC78.ttf;" parent="1" vertex="1">
                    <mxGeometry x="540" y="323" width="120" height="60" as="geometry"/>
                </mxCell>
                <mxCell id="zqthRXL9cf5ADTUJQYBn-12" style="edgeStyle=orthogonalEdgeStyle;rounded=0;orthogonalLoop=1;jettySize=auto;html=1;fontSize=16;fontFamily=阿里汉仪智能黑体;fontSource=https%3A%2F%2Fhellowebfonts.oss-cn-beijing.aliyuncs.com%2F698F3099-E62F-4C3B-B30A-04FB735069FE%2F202209%2F44C5C1037925EC78.ttf;" parent="1" source="zqthRXL9cf5ADTUJQYBn-10" edge="1">
                    <mxGeometry relative="1" as="geometry">
                        <mxPoint x="600" y="595" as="targetPoint"/>
                    </mxGeometry>
                </mxCell>
                <mxCell id="zqthRXL9cf5ADTUJQYBn-10" value="步骤三" style="rounded=0;whiteSpace=wrap;html=1;fontSize=16;fontFamily=阿里汉仪智能黑体;fontSource=https%3A%2F%2Fhellowebfonts.oss-cn-beijing.aliyuncs.com%2F698F3099-E62F-4C3B-B30A-04FB735069FE%2F202209%2F44C5C1037925EC78.ttf;" parent="1" vertex="1">
                    <mxGeometry x="540" y="440" width="120" height="60" as="geometry"/>
                </mxCell>
                <mxCell id="zqthRXL9cf5ADTUJQYBn-16" value="否" style="edgeStyle=orthogonalEdgeStyle;rounded=0;orthogonalLoop=1;jettySize=auto;html=1;fontFamily=阿里汉仪智能黑体;fontSource=https%3A%2F%2Fhellowebfonts.oss-cn-beijing.aliyuncs.com%2F698F3099-E62F-4C3B-B30A-04FB735069FE%2F202209%2F44C5C1037925EC78.ttf;fontSize=16;" parent="1" source="zqthRXL9cf5ADTUJQYBn-13" target="zqthRXL9cf5ADTUJQYBn-15" edge="1">
                    <mxGeometry relative="1" as="geometry"/>
                </mxCell>
                <mxCell id="zqthRXL9cf5ADTUJQYBn-18" value="是" style="edgeStyle=orthogonalEdgeStyle;rounded=0;orthogonalLoop=1;jettySize=auto;html=1;fontFamily=阿里汉仪智能黑体;fontSource=https%3A%2F%2Fhellowebfonts.oss-cn-beijing.aliyuncs.com%2F698F3099-E62F-4C3B-B30A-04FB735069FE%2F202209%2F44C5C1037925EC78.ttf;fontSize=16;strokeWidth=1;" parent="1" source="zqthRXL9cf5ADTUJQYBn-13" target="zqthRXL9cf5ADTUJQYBn-17" edge="1">
                    <mxGeometry relative="1" as="geometry"/>
                </mxCell>
                <mxCell id="zqthRXL9cf5ADTUJQYBn-13" value="条件？" style="strokeWidth=1;html=1;shape=mxgraph.flowchart.decision;whiteSpace=wrap;fontFamily=阿里汉仪智能黑体;fontSource=https%3A%2F%2Fhellowebfonts.oss-cn-beijing.aliyuncs.com%2F698F3099-E62F-4C3B-B30A-04FB735069FE%2F202209%2F44C5C1037925EC78.ttf;fontSize=16;" parent="1" vertex="1">
                    <mxGeometry x="890" y="235" width="100" height="100" as="geometry"/>
                </mxCell>
                <mxCell id="zqthRXL9cf5ADTUJQYBn-14" value="" style="endArrow=classic;html=1;rounded=0;fontFamily=阿里汉仪智能黑体;fontSource=https%3A%2F%2Fhellowebfonts.oss-cn-beijing.aliyuncs.com%2F698F3099-E62F-4C3B-B30A-04FB735069FE%2F202209%2F44C5C1037925EC78.ttf;fontSize=16;" parent="1" target="zqthRXL9cf5ADTUJQYBn-13" edge="1">
                    <mxGeometry width="50" height="50" relative="1" as="geometry">
                        <mxPoint x="940" y="170" as="sourcePoint"/>
                        <mxPoint x="930" y="110" as="targetPoint"/>
                    </mxGeometry>
                </mxCell>
                <mxCell id="zqthRXL9cf5ADTUJQYBn-21" style="edgeStyle=orthogonalEdgeStyle;rounded=0;orthogonalLoop=1;jettySize=auto;html=1;entryX=1;entryY=0.5;entryDx=0;entryDy=0;fontFamily=阿里汉仪智能黑体;fontSource=https%3A%2F%2Fhellowebfonts.oss-cn-beijing.aliyuncs.com%2F698F3099-E62F-4C3B-B30A-04FB735069FE%2F202209%2F44C5C1037925EC78.ttf;fontSize=16;exitX=0.5;exitY=1;exitDx=0;exitDy=0;" parent="1" source="zqthRXL9cf5ADTUJQYBn-15" target="zqthRXL9cf5ADTUJQYBn-19" edge="1">
                    <mxGeometry relative="1" as="geometry"/>
                </mxCell>
                <mxCell id="zqthRXL9cf5ADTUJQYBn-15" value="步骤二" style="whiteSpace=wrap;html=1;fontSize=16;fontFamily=阿里汉仪智能黑体;strokeWidth=1;fontSource=https%3A%2F%2Fhellowebfonts.oss-cn-beijing.aliyuncs.com%2F698F3099-E62F-4C3B-B30A-04FB735069FE%2F202209%2F44C5C1037925EC78.ttf;" parent="1" vertex="1">
                    <mxGeometry x="1060" y="430" width="120" height="60" as="geometry"/>
                </mxCell>
                <mxCell id="zqthRXL9cf5ADTUJQYBn-20" value="" style="edgeStyle=orthogonalEdgeStyle;rounded=0;orthogonalLoop=1;jettySize=auto;html=1;fontFamily=阿里汉仪智能黑体;fontSource=https%3A%2F%2Fhellowebfonts.oss-cn-beijing.aliyuncs.com%2F698F3099-E62F-4C3B-B30A-04FB735069FE%2F202209%2F44C5C1037925EC78.ttf;fontSize=16;strokeWidth=1;" parent="1" source="zqthRXL9cf5ADTUJQYBn-17" target="zqthRXL9cf5ADTUJQYBn-19" edge="1">
                    <mxGeometry relative="1" as="geometry"/>
                </mxCell>
                <mxCell id="zqthRXL9cf5ADTUJQYBn-17" value="步骤一" style="whiteSpace=wrap;html=1;fontSize=16;fontFamily=阿里汉仪智能黑体;strokeWidth=1;fontSource=https%3A%2F%2Fhellowebfonts.oss-cn-beijing.aliyuncs.com%2F698F3099-E62F-4C3B-B30A-04FB735069FE%2F202209%2F44C5C1037925EC78.ttf;" parent="1" vertex="1">
                    <mxGeometry x="880" y="430" width="120" height="60" as="geometry"/>
                </mxCell>
                <mxCell id="zqthRXL9cf5ADTUJQYBn-22" style="edgeStyle=orthogonalEdgeStyle;rounded=0;orthogonalLoop=1;jettySize=auto;html=1;fontFamily=阿里汉仪智能黑体;fontSource=https%3A%2F%2Fhellowebfonts.oss-cn-beijing.aliyuncs.com%2F698F3099-E62F-4C3B-B30A-04FB735069FE%2F202209%2F44C5C1037925EC78.ttf;fontSize=16;" parent="1" source="zqthRXL9cf5ADTUJQYBn-19" edge="1">
                    <mxGeometry relative="1" as="geometry">
                        <mxPoint x="940" y="700" as="targetPoint"/>
                    </mxGeometry>
                </mxCell>
                <mxCell id="zqthRXL9cf5ADTUJQYBn-19" value="步骤三" style="whiteSpace=wrap;html=1;fontSize=16;fontFamily=阿里汉仪智能黑体;strokeWidth=1;fontSource=https%3A%2F%2Fhellowebfonts.oss-cn-beijing.aliyuncs.com%2F698F3099-E62F-4C3B-B30A-04FB735069FE%2F202209%2F44C5C1037925EC78.ttf;" parent="1" vertex="1">
                    <mxGeometry x="880" y="570" width="120" height="60" as="geometry"/>
                </mxCell>
                <mxCell id="zqthRXL9cf5ADTUJQYBn-27" style="edgeStyle=orthogonalEdgeStyle;rounded=0;orthogonalLoop=1;jettySize=auto;html=1;entryX=0.5;entryY=0;entryDx=0;entryDy=0;entryPerimeter=0;strokeWidth=1;fontFamily=阿里汉仪智能黑体;fontSource=https%3A%2F%2Fhellowebfonts.oss-cn-beijing.aliyuncs.com%2F698F3099-E62F-4C3B-B30A-04FB735069FE%2F202209%2F44C5C1037925EC78.ttf;fontSize=16;exitX=0;exitY=0.5;exitDx=0;exitDy=0;" parent="1" source="zqthRXL9cf5ADTUJQYBn-24" target="zqthRXL9cf5ADTUJQYBn-25" edge="1">
                    <mxGeometry relative="1" as="geometry">
                        <Array as="points">
                            <mxPoint x="1310" y="505"/>
                            <mxPoint x="1310" y="275"/>
                            <mxPoint x="1420" y="275"/>
                        </Array>
                    </mxGeometry>
                </mxCell>
                <mxCell id="zqthRXL9cf5ADTUJQYBn-24" value="步骤一" style="whiteSpace=wrap;html=1;fontSize=16;fontFamily=阿里汉仪智能黑体;strokeWidth=1;fontSource=https%3A%2F%2Fhellowebfonts.oss-cn-beijing.aliyuncs.com%2F698F3099-E62F-4C3B-B30A-04FB735069FE%2F202209%2F44C5C1037925EC78.ttf;" parent="1" vertex="1">
                    <mxGeometry x="1360" y="475" width="120" height="60" as="geometry"/>
                </mxCell>
                <mxCell id="zqthRXL9cf5ADTUJQYBn-26" value="是" style="edgeStyle=orthogonalEdgeStyle;rounded=0;orthogonalLoop=1;jettySize=auto;html=1;strokeWidth=1;fontFamily=阿里汉仪智能黑体;fontSource=https%3A%2F%2Fhellowebfonts.oss-cn-beijing.aliyuncs.com%2F698F3099-E62F-4C3B-B30A-04FB735069FE%2F202209%2F44C5C1037925EC78.ttf;fontSize=16;" parent="1" source="zqthRXL9cf5ADTUJQYBn-25" target="zqthRXL9cf5ADTUJQYBn-24" edge="1">
                    <mxGeometry relative="1" as="geometry"/>
                </mxCell>
                <mxCell id="zqthRXL9cf5ADTUJQYBn-31" value="否" style="edgeStyle=orthogonalEdgeStyle;rounded=0;orthogonalLoop=1;jettySize=auto;html=1;strokeWidth=1;fontFamily=阿里汉仪智能黑体;fontSource=https%3A%2F%2Fhellowebfonts.oss-cn-beijing.aliyuncs.com%2F698F3099-E62F-4C3B-B30A-04FB735069FE%2F202209%2F44C5C1037925EC78.ttf;fontSize=16;" parent="1" source="zqthRXL9cf5ADTUJQYBn-25" target="zqthRXL9cf5ADTUJQYBn-30" edge="1">
                    <mxGeometry relative="1" as="geometry"/>
                </mxCell>
                <mxCell id="zqthRXL9cf5ADTUJQYBn-25" value="条件？" style="strokeWidth=1;html=1;shape=mxgraph.flowchart.decision;whiteSpace=wrap;fontFamily=阿里汉仪智能黑体;fontSource=https%3A%2F%2Fhellowebfonts.oss-cn-beijing.aliyuncs.com%2F698F3099-E62F-4C3B-B30A-04FB735069FE%2F202209%2F44C5C1037925EC78.ttf;fontSize=16;" parent="1" vertex="1">
                    <mxGeometry x="1370" y="295" width="100" height="100" as="geometry"/>
                </mxCell>
                <mxCell id="zqthRXL9cf5ADTUJQYBn-29" style="edgeStyle=orthogonalEdgeStyle;rounded=0;orthogonalLoop=1;jettySize=auto;html=1;strokeWidth=1;fontFamily=阿里汉仪智能黑体;fontSource=https%3A%2F%2Fhellowebfonts.oss-cn-beijing.aliyuncs.com%2F698F3099-E62F-4C3B-B30A-04FB735069FE%2F202209%2F44C5C1037925EC78.ttf;fontSize=16;entryX=0.5;entryY=0;entryDx=0;entryDy=0;entryPerimeter=0;" parent="1" target="zqthRXL9cf5ADTUJQYBn-25" edge="1">
                    <mxGeometry relative="1" as="geometry">
                        <mxPoint x="1430" y="615" as="targetPoint"/>
                        <mxPoint x="1420" y="215" as="sourcePoint"/>
                    </mxGeometry>
                </mxCell>
                <mxCell id="R8zQc2UoVKq9KTv9tf1g-1" style="edgeStyle=orthogonalEdgeStyle;rounded=0;orthogonalLoop=1;jettySize=auto;html=1;fontFamily=阿里汉仪智能黑体;fontSource=https%3A%2F%2Fhellowebfonts.oss-cn-beijing.aliyuncs.com%2F698F3099-E62F-4C3B-B30A-04FB735069FE%2F202209%2F44C5C1037925EC78.ttf;fontSize=16;endArrow=classic;endFill=1;" parent="1" source="zqthRXL9cf5ADTUJQYBn-30" edge="1">
                    <mxGeometry relative="1" as="geometry">
                        <mxPoint x="1570" y="610" as="targetPoint"/>
                    </mxGeometry>
                </mxCell>
                <mxCell id="zqthRXL9cf5ADTUJQYBn-30" value="步骤二" style="whiteSpace=wrap;html=1;fontSize=16;fontFamily=阿里汉仪智能黑体;strokeWidth=1;fontSource=https%3A%2F%2Fhellowebfonts.oss-cn-beijing.aliyuncs.com%2F698F3099-E62F-4C3B-B30A-04FB735069FE%2F202209%2F44C5C1037925EC78.ttf;" parent="1" vertex="1">
                    <mxGeometry x="1510" y="475" width="120" height="60" as="geometry"/>
                </mxCell>
                <mxCell id="zqthRXL9cf5ADTUJQYBn-33" value="当型结构" style="rounded=1;whiteSpace=wrap;html=1;strokeWidth=1;fontFamily=阿里汉仪智能黑体;fontSource=https%3A%2F%2Fhellowebfonts.oss-cn-beijing.aliyuncs.com%2F698F3099-E62F-4C3B-B30A-04FB735069FE%2F202209%2F44C5C1037925EC78.ttf;fontSize=16;fillColor=#42c181;strokeColor=none;" parent="1" vertex="1">
                    <mxGeometry x="1360" y="140" width="120" height="60" as="geometry"/>
                </mxCell>
                <mxCell id="zqthRXL9cf5ADTUJQYBn-34" value="直到型结构" style="rounded=1;whiteSpace=wrap;html=1;strokeWidth=1;fontFamily=阿里汉仪智能黑体;fontSource=https%3A%2F%2Fhellowebfonts.oss-cn-beijing.aliyuncs.com%2F698F3099-E62F-4C3B-B30A-04FB735069FE%2F202209%2F44C5C1037925EC78.ttf;fontSize=16;fillColor=#42c181;strokeColor=none;" parent="1" vertex="1">
                    <mxGeometry x="1770" y="140" width="120" height="60" as="geometry"/>
                </mxCell>
                <mxCell id="zqthRXL9cf5ADTUJQYBn-37" style="edgeStyle=orthogonalEdgeStyle;rounded=0;orthogonalLoop=1;jettySize=auto;html=1;strokeWidth=1;fontFamily=阿里汉仪智能黑体;fontSource=https%3A%2F%2Fhellowebfonts.oss-cn-beijing.aliyuncs.com%2F698F3099-E62F-4C3B-B30A-04FB735069FE%2F202209%2F44C5C1037925EC78.ttf;fontSize=16;" parent="1" source="zqthRXL9cf5ADTUJQYBn-35" target="zqthRXL9cf5ADTUJQYBn-36" edge="1">
                    <mxGeometry relative="1" as="geometry"/>
                </mxCell>
                <mxCell id="zqthRXL9cf5ADTUJQYBn-35" value="步骤一" style="whiteSpace=wrap;html=1;fontSize=16;fontFamily=阿里汉仪智能黑体;strokeWidth=1;fontSource=https%3A%2F%2Fhellowebfonts.oss-cn-beijing.aliyuncs.com%2F698F3099-E62F-4C3B-B30A-04FB735069FE%2F202209%2F44C5C1037925EC78.ttf;" parent="1" vertex="1">
                    <mxGeometry x="1770" y="315" width="120" height="60" as="geometry"/>
                </mxCell>
                <mxCell id="zqthRXL9cf5ADTUJQYBn-38" value="是" style="edgeStyle=orthogonalEdgeStyle;rounded=0;orthogonalLoop=1;jettySize=auto;html=1;strokeWidth=1;fontFamily=阿里汉仪智能黑体;fontSource=https%3A%2F%2Fhellowebfonts.oss-cn-beijing.aliyuncs.com%2F698F3099-E62F-4C3B-B30A-04FB735069FE%2F202209%2F44C5C1037925EC78.ttf;fontSize=16;" parent="1" source="zqthRXL9cf5ADTUJQYBn-36" edge="1">
                    <mxGeometry relative="1" as="geometry">
                        <mxPoint x="1830" y="600" as="targetPoint"/>
                    </mxGeometry>
                </mxCell>
                <mxCell id="zqthRXL9cf5ADTUJQYBn-39" value="否" style="edgeStyle=orthogonalEdgeStyle;rounded=0;orthogonalLoop=1;jettySize=auto;html=1;entryX=0.5;entryY=0;entryDx=0;entryDy=0;strokeWidth=1;fontFamily=阿里汉仪智能黑体;fontSource=https%3A%2F%2Fhellowebfonts.oss-cn-beijing.aliyuncs.com%2F698F3099-E62F-4C3B-B30A-04FB735069FE%2F202209%2F44C5C1037925EC78.ttf;fontSize=16;exitX=0;exitY=0.5;exitDx=0;exitDy=0;exitPerimeter=0;" parent="1" source="zqthRXL9cf5ADTUJQYBn-36" target="zqthRXL9cf5ADTUJQYBn-35" edge="1">
                    <mxGeometry relative="1" as="geometry">
                        <Array as="points">
                            <mxPoint x="1720" y="490"/>
                            <mxPoint x="1720" y="295"/>
                            <mxPoint x="1830" y="295"/>
                        </Array>
                    </mxGeometry>
                </mxCell>
                <mxCell id="zqthRXL9cf5ADTUJQYBn-36" value="条件？" style="strokeWidth=1;html=1;shape=mxgraph.flowchart.decision;whiteSpace=wrap;fontFamily=阿里汉仪智能黑体;fontSource=https%3A%2F%2Fhellowebfonts.oss-cn-beijing.aliyuncs.com%2F698F3099-E62F-4C3B-B30A-04FB735069FE%2F202209%2F44C5C1037925EC78.ttf;fontSize=16;" parent="1" vertex="1">
                    <mxGeometry x="1780" y="440" width="100" height="100" as="geometry"/>
                </mxCell>
                <mxCell id="zqthRXL9cf5ADTUJQYBn-40" style="edgeStyle=orthogonalEdgeStyle;rounded=0;orthogonalLoop=1;jettySize=auto;html=1;strokeWidth=1;fontFamily=阿里汉仪智能黑体;fontSource=https%3A%2F%2Fhellowebfonts.oss-cn-beijing.aliyuncs.com%2F698F3099-E62F-4C3B-B30A-04FB735069FE%2F202209%2F44C5C1037925EC78.ttf;fontSize=16;" parent="1" target="zqthRXL9cf5ADTUJQYBn-35" edge="1">
                    <mxGeometry relative="1" as="geometry">
                        <mxPoint x="1850" y="285" as="targetPoint"/>
                        <mxPoint x="1830" y="230" as="sourcePoint"/>
                    </mxGeometry>
                </mxCell>
                <mxCell id="3itTFTXVqT4Bd-DhyeUn-6" value="" style="edgeStyle=orthogonalEdgeStyle;rounded=0;orthogonalLoop=1;jettySize=auto;html=1;fontFamily=阿里汉仪智能黑体;fontSource=https%3A%2F%2Fhellowebfonts.oss-cn-beijing.aliyuncs.com%2F698F3099-E62F-4C3B-B30A-04FB735069FE%2F202209%2F44C5C1037925EC78.ttf;" parent="1" source="3itTFTXVqT4Bd-DhyeUn-3" target="3itTFTXVqT4Bd-DhyeUn-5" edge="1">
                    <mxGeometry relative="1" as="geometry"/>
                </mxCell>
                <mxCell id="3itTFTXVqT4Bd-DhyeUn-8" style="edgeStyle=orthogonalEdgeStyle;rounded=0;orthogonalLoop=1;jettySize=auto;html=1;fontFamily=阿里汉仪智能黑体;fontSource=https%3A%2F%2Fhellowebfonts.oss-cn-beijing.aliyuncs.com%2F698F3099-E62F-4C3B-B30A-04FB735069FE%2F202209%2F44C5C1037925EC78.ttf;" parent="1" source="3itTFTXVqT4Bd-DhyeUn-3" target="3itTFTXVqT4Bd-DhyeUn-7" edge="1">
                    <mxGeometry relative="1" as="geometry"/>
                </mxCell>
                <mxCell id="3itTFTXVqT4Bd-DhyeUn-3" value="" style="verticalLabelPosition=bottom;verticalAlign=top;html=1;shape=mxgraph.flowchart.parallel_mode;pointerEvents=1;fontFamily=阿里汉仪智能黑体;fontSource=https%3A%2F%2Fhellowebfonts.oss-cn-beijing.aliyuncs.com%2F698F3099-E62F-4C3B-B30A-04FB735069FE%2F202209%2F44C5C1037925EC78.ttf;" parent="1" vertex="1">
                    <mxGeometry x="-817.5" y="660" width="95" height="40" as="geometry"/>
                </mxCell>
                <mxCell id="3itTFTXVqT4Bd-DhyeUn-4" value="&lt;h1&gt;并行&lt;/h1&gt;&lt;p&gt;&lt;span style=&quot;color: rgb(85, 85, 85); font-size: 16px; text-align: justify; background-color: rgb(255, 255, 255);&quot;&gt;并行活动是由同步栅来控制的，同步栅必须分叉和汇合成对出现。&lt;/span&gt;&lt;br&gt;&lt;/p&gt;" style="text;html=1;strokeColor=none;fillColor=none;spacing=5;spacingTop=-20;whiteSpace=wrap;overflow=hidden;rounded=0;shadow=0;fontFamily=阿里汉仪智能黑体;fontSource=https%3A%2F%2Fhellowebfonts.oss-cn-beijing.aliyuncs.com%2F698F3099-E62F-4C3B-B30A-04FB735069FE%2F202209%2F44C5C1037925EC78.ttf;fontSize=14;" parent="1" vertex="1">
                    <mxGeometry x="-550" y="640" width="229" height="120" as="geometry"/>
                </mxCell>
                <mxCell id="3itTFTXVqT4Bd-DhyeUn-11" style="edgeStyle=orthogonalEdgeStyle;rounded=0;orthogonalLoop=1;jettySize=auto;html=1;entryX=0.5;entryY=0;entryDx=0;entryDy=0;entryPerimeter=0;fontFamily=阿里汉仪智能黑体;fontSource=https%3A%2F%2Fhellowebfonts.oss-cn-beijing.aliyuncs.com%2F698F3099-E62F-4C3B-B30A-04FB735069FE%2F202209%2F44C5C1037925EC78.ttf;" parent="1" source="3itTFTXVqT4Bd-DhyeUn-5" target="3itTFTXVqT4Bd-DhyeUn-10" edge="1">
                    <mxGeometry relative="1" as="geometry"/>
                </mxCell>
                <mxCell id="3itTFTXVqT4Bd-DhyeUn-5" value="伸出左手" style="whiteSpace=wrap;html=1;verticalAlign=middle;fontFamily=阿里汉仪智能黑体;fontSource=https%3A%2F%2Fhellowebfonts.oss-cn-beijing.aliyuncs.com%2F698F3099-E62F-4C3B-B30A-04FB735069FE%2F202209%2F44C5C1037925EC78.ttf;" parent="1" vertex="1">
                    <mxGeometry x="-920" y="765" width="120" height="60" as="geometry"/>
                </mxCell>
                <mxCell id="3itTFTXVqT4Bd-DhyeUn-12" style="edgeStyle=orthogonalEdgeStyle;rounded=0;orthogonalLoop=1;jettySize=auto;html=1;entryX=0.5;entryY=0;entryDx=0;entryDy=0;entryPerimeter=0;fontFamily=阿里汉仪智能黑体;fontSource=https%3A%2F%2Fhellowebfonts.oss-cn-beijing.aliyuncs.com%2F698F3099-E62F-4C3B-B30A-04FB735069FE%2F202209%2F44C5C1037925EC78.ttf;" parent="1" source="3itTFTXVqT4Bd-DhyeUn-7" target="3itTFTXVqT4Bd-DhyeUn-10" edge="1">
                    <mxGeometry relative="1" as="geometry"/>
                </mxCell>
                <mxCell id="3itTFTXVqT4Bd-DhyeUn-7" value="伸出右手" style="whiteSpace=wrap;html=1;verticalAlign=middle;fontFamily=阿里汉仪智能黑体;fontSource=https%3A%2F%2Fhellowebfonts.oss-cn-beijing.aliyuncs.com%2F698F3099-E62F-4C3B-B30A-04FB735069FE%2F202209%2F44C5C1037925EC78.ttf;" parent="1" vertex="1">
                    <mxGeometry x="-740" y="765" width="120" height="60" as="geometry"/>
                </mxCell>
                <mxCell id="3itTFTXVqT4Bd-DhyeUn-9" value="" style="edgeStyle=orthogonalEdgeStyle;rounded=0;orthogonalLoop=1;jettySize=auto;html=1;entryX=0.5;entryY=0;entryDx=0;entryDy=0;entryPerimeter=0;fontFamily=阿里汉仪智能黑体;fontSource=https%3A%2F%2Fhellowebfonts.oss-cn-beijing.aliyuncs.com%2F698F3099-E62F-4C3B-B30A-04FB735069FE%2F202209%2F44C5C1037925EC78.ttf;" parent="1" target="3itTFTXVqT4Bd-DhyeUn-3" edge="1">
                    <mxGeometry relative="1" as="geometry">
                        <mxPoint x="-769.5" y="610" as="sourcePoint"/>
                        <mxPoint x="-945" y="710" as="targetPoint"/>
                    </mxGeometry>
                </mxCell>
                <mxCell id="3itTFTXVqT4Bd-DhyeUn-14" value="" style="edgeStyle=orthogonalEdgeStyle;rounded=0;orthogonalLoop=1;jettySize=auto;html=1;fontFamily=阿里汉仪智能黑体;fontSource=https%3A%2F%2Fhellowebfonts.oss-cn-beijing.aliyuncs.com%2F698F3099-E62F-4C3B-B30A-04FB735069FE%2F202209%2F44C5C1037925EC78.ttf;" parent="1" source="3itTFTXVqT4Bd-DhyeUn-10" target="3itTFTXVqT4Bd-DhyeUn-13" edge="1">
                    <mxGeometry relative="1" as="geometry"/>
                </mxCell>
                <mxCell id="3itTFTXVqT4Bd-DhyeUn-10" value="" style="verticalLabelPosition=bottom;verticalAlign=top;html=1;shape=mxgraph.flowchart.parallel_mode;pointerEvents=1;fontFamily=阿里汉仪智能黑体;fontSource=https%3A%2F%2Fhellowebfonts.oss-cn-beijing.aliyuncs.com%2F698F3099-E62F-4C3B-B30A-04FB735069FE%2F202209%2F44C5C1037925EC78.ttf;" parent="1" vertex="1">
                    <mxGeometry x="-817.5" y="880" width="95" height="40" as="geometry"/>
                </mxCell>
                <mxCell id="3itTFTXVqT4Bd-DhyeUn-13" value="十指交叉" style="whiteSpace=wrap;html=1;fontFamily=阿里汉仪智能黑体;verticalAlign=middle;fontSource=https%3A%2F%2Fhellowebfonts.oss-cn-beijing.aliyuncs.com%2F698F3099-E62F-4C3B-B30A-04FB735069FE%2F202209%2F44C5C1037925EC78.ttf;" parent="1" vertex="1">
                    <mxGeometry x="-830" y="970" width="120" height="60" as="geometry"/>
                </mxCell>
            </root>
        </mxGraphModel>
    </diagram>
    <diagram id="OMi9P-udnUN90HtaRdLu" name="例子">
        <mxGraphModel dx="1645" dy="1776" grid="1" gridSize="10" guides="1" tooltips="1" connect="1" arrows="1" fold="1" page="1" pageScale="1" pageWidth="827" pageHeight="1169" math="0" shadow="0">
            <root>
                <mxCell id="0"/>
                <mxCell id="1" parent="0"/>
                <mxCell id="RWPMWBLEITRf5Ue282e1-1" value="" style="rounded=0;html=1;jettySize=auto;orthogonalLoop=1;fontSize=14;endArrow=classic;endFill=1;endSize=8;strokeWidth=1;shadow=0;labelBackgroundColor=none;edgeStyle=orthogonalEdgeStyle;fontFamily=阿里汉仪智能黑体;fontSource=https%3A%2F%2Fhellowebfonts.oss-cn-beijing.aliyuncs.com%2F698F3099-E62F-4C3B-B30A-04FB735069FE%2F202209%2F44C5C1037925EC78.ttf;" parent="1" source="RWPMWBLEITRf5Ue282e1-2" target="RWPMWBLEITRf5Ue282e1-5" edge="1">
                    <mxGeometry relative="1" as="geometry"/>
                </mxCell>
                <mxCell id="OEU-2yujjEtkwBlndGsu-5" style="rounded=0;orthogonalLoop=1;jettySize=auto;html=1;shadow=0;fontFamily=阿里汉仪智能黑体;fontSource=https%3A%2F%2Fhellowebfonts.oss-cn-beijing.aliyuncs.com%2F698F3099-E62F-4C3B-B30A-04FB735069FE%2F202209%2F44C5C1037925EC78.ttf;fontSize=14;endArrow=classic;endFill=1;edgeStyle=orthogonalEdgeStyle;" parent="1" source="RWPMWBLEITRf5Ue282e1-2" target="OEU-2yujjEtkwBlndGsu-6" edge="1">
                    <mxGeometry relative="1" as="geometry">
                        <mxPoint x="200" y="70" as="targetPoint"/>
                    </mxGeometry>
                </mxCell>
                <mxCell id="RWPMWBLEITRf5Ue282e1-2" value="&lt;span style=&quot;color: rgb(24, 32, 38); font-size: 14px; text-align: start; background-color: rgb(255, 255, 255);&quot;&gt;灯不工作&lt;/span&gt;" style="rounded=1;whiteSpace=wrap;html=1;fontSize=14;glass=0;strokeWidth=1;shadow=0;fontFamily=阿里汉仪智能黑体;fontSource=https%3A%2F%2Fhellowebfonts.oss-cn-beijing.aliyuncs.com%2F698F3099-E62F-4C3B-B30A-04FB735069FE%2F202209%2F44C5C1037925EC78.ttf;" parent="1" vertex="1">
                    <mxGeometry x="300" y="50" width="120" height="40" as="geometry"/>
                </mxCell>
                <mxCell id="RWPMWBLEITRf5Ue282e1-3" value="" style="rounded=0;html=1;jettySize=auto;orthogonalLoop=1;fontSize=14;endArrow=classic;endFill=1;endSize=8;strokeWidth=1;shadow=0;labelBackgroundColor=none;edgeStyle=orthogonalEdgeStyle;fontFamily=阿里汉仪智能黑体;fontSource=https%3A%2F%2Fhellowebfonts.oss-cn-beijing.aliyuncs.com%2F698F3099-E62F-4C3B-B30A-04FB735069FE%2F202209%2F44C5C1037925EC78.ttf;startArrow=none;" parent="1" source="ifcMIvCHkcKseI4FGqii-1" target="RWPMWBLEITRf5Ue282e1-9" edge="1">
                    <mxGeometry y="20" relative="1" as="geometry">
                        <mxPoint as="offset"/>
                        <mxPoint x="360" y="325" as="targetPoint"/>
                    </mxGeometry>
                </mxCell>
                <mxCell id="RWPMWBLEITRf5Ue282e1-4" value="否" style="edgeStyle=orthogonalEdgeStyle;rounded=0;html=1;jettySize=auto;orthogonalLoop=1;fontSize=14;endArrow=classic;endFill=1;endSize=8;strokeWidth=1;shadow=0;labelBackgroundColor=none;fontFamily=阿里汉仪智能黑体;fontSource=https%3A%2F%2Fhellowebfonts.oss-cn-beijing.aliyuncs.com%2F698F3099-E62F-4C3B-B30A-04FB735069FE%2F202209%2F44C5C1037925EC78.ttf;" parent="1" source="RWPMWBLEITRf5Ue282e1-5" target="RWPMWBLEITRf5Ue282e1-6" edge="1">
                    <mxGeometry y="10" relative="1" as="geometry">
                        <mxPoint as="offset"/>
                    </mxGeometry>
                </mxCell>
                <mxCell id="RWPMWBLEITRf5Ue282e1-5" value="是否通电？" style="rhombus;whiteSpace=wrap;html=1;shadow=0;fontFamily=阿里汉仪智能黑体;fontSize=14;align=center;strokeWidth=1;spacing=6;spacingTop=-4;fontSource=https%3A%2F%2Fhellowebfonts.oss-cn-beijing.aliyuncs.com%2F698F3099-E62F-4C3B-B30A-04FB735069FE%2F202209%2F44C5C1037925EC78.ttf;" parent="1" vertex="1">
                    <mxGeometry x="310" y="170" width="100" height="80" as="geometry"/>
                </mxCell>
                <mxCell id="s1PAAfIKxOOCVqdg-I9Z-1" style="edgeStyle=orthogonalEdgeStyle;rounded=0;orthogonalLoop=1;jettySize=auto;html=1;fontFamily=阿里汉仪智能黑体;fontSource=https%3A%2F%2Fhellowebfonts.oss-cn-beijing.aliyuncs.com%2F698F3099-E62F-4C3B-B30A-04FB735069FE%2F202209%2F44C5C1037925EC78.ttf;fontSize=14;endArrow=classic;endFill=1;exitX=0.5;exitY=1;exitDx=0;exitDy=0;shadow=0;" parent="1" source="RWPMWBLEITRf5Ue282e1-6" target="gfhigBiiKLFYpVZEgQD3-4" edge="1">
                    <mxGeometry relative="1" as="geometry">
                        <mxPoint x="550" y="680" as="targetPoint"/>
                    </mxGeometry>
                </mxCell>
                <mxCell id="QLsCSTX1UD4tIitnedBa-5" style="edgeStyle=orthogonalEdgeStyle;rounded=0;orthogonalLoop=1;jettySize=auto;html=1;shadow=0;fontFamily=阿里汉仪智能黑体;fontSource=https%3A%2F%2Fhellowebfonts.oss-cn-beijing.aliyuncs.com%2F698F3099-E62F-4C3B-B30A-04FB735069FE%2F202209%2F44C5C1037925EC78.ttf;fontSize=14;endArrow=classic;endFill=1;" parent="1" source="RWPMWBLEITRf5Ue282e1-6" target="QLsCSTX1UD4tIitnedBa-4" edge="1">
                    <mxGeometry relative="1" as="geometry"/>
                </mxCell>
                <mxCell id="RWPMWBLEITRf5Ue282e1-6" value="通电" style="rounded=1;whiteSpace=wrap;html=1;fontSize=14;glass=0;strokeWidth=1;shadow=0;fontFamily=阿里汉仪智能黑体;fontSource=https%3A%2F%2Fhellowebfonts.oss-cn-beijing.aliyuncs.com%2F698F3099-E62F-4C3B-B30A-04FB735069FE%2F202209%2F44C5C1037925EC78.ttf;" parent="1" vertex="1">
                    <mxGeometry x="490" y="190" width="120" height="40" as="geometry"/>
                </mxCell>
                <mxCell id="RWPMWBLEITRf5Ue282e1-7" value="是" style="rounded=0;html=1;jettySize=auto;orthogonalLoop=1;fontSize=14;endArrow=classic;endFill=1;endSize=8;strokeWidth=1;shadow=0;labelBackgroundColor=none;edgeStyle=orthogonalEdgeStyle;fontFamily=阿里汉仪智能黑体;fontSource=https%3A%2F%2Fhellowebfonts.oss-cn-beijing.aliyuncs.com%2F698F3099-E62F-4C3B-B30A-04FB735069FE%2F202209%2F44C5C1037925EC78.ttf;" parent="1" source="RWPMWBLEITRf5Ue282e1-9" target="uLJsTBXCzgYsL3XrusuO-5" edge="1">
                    <mxGeometry x="0.3333" y="20" relative="1" as="geometry">
                        <mxPoint as="offset"/>
                        <mxPoint x="360" y="580" as="targetPoint"/>
                    </mxGeometry>
                </mxCell>
                <mxCell id="RWPMWBLEITRf5Ue282e1-8" value="否" style="edgeStyle=orthogonalEdgeStyle;rounded=0;html=1;jettySize=auto;orthogonalLoop=1;fontSize=14;endArrow=classic;endFill=1;endSize=8;strokeWidth=1;shadow=0;labelBackgroundColor=none;fontFamily=阿里汉仪智能黑体;fontSource=https%3A%2F%2Fhellowebfonts.oss-cn-beijing.aliyuncs.com%2F698F3099-E62F-4C3B-B30A-04FB735069FE%2F202209%2F44C5C1037925EC78.ttf;" parent="1" source="RWPMWBLEITRf5Ue282e1-9" target="RWPMWBLEITRf5Ue282e1-11" edge="1">
                    <mxGeometry y="10" relative="1" as="geometry">
                        <mxPoint as="offset"/>
                    </mxGeometry>
                </mxCell>
                <mxCell id="RWPMWBLEITRf5Ue282e1-9" value="可维修？" style="rhombus;whiteSpace=wrap;html=1;shadow=0;fontFamily=阿里汉仪智能黑体;fontSize=14;align=center;strokeWidth=1;spacing=6;spacingTop=-4;fontSource=https%3A%2F%2Fhellowebfonts.oss-cn-beijing.aliyuncs.com%2F698F3099-E62F-4C3B-B30A-04FB735069FE%2F202209%2F44C5C1037925EC78.ttf;" parent="1" vertex="1">
                    <mxGeometry x="310" y="430" width="100" height="80" as="geometry"/>
                </mxCell>
                <mxCell id="F3lPO6Og-AA01Zl45GUm-2" value="" style="edgeStyle=orthogonalEdgeStyle;rounded=0;orthogonalLoop=1;jettySize=auto;html=1;fontSize=14;fontFamily=阿里汉仪智能黑体;fontSource=https%3A%2F%2Fhellowebfonts.oss-cn-beijing.aliyuncs.com%2F698F3099-E62F-4C3B-B30A-04FB735069FE%2F202209%2F44C5C1037925EC78.ttf;shadow=0;" parent="1" source="uLJsTBXCzgYsL3XrusuO-5" target="F3lPO6Og-AA01Zl45GUm-1" edge="1">
                    <mxGeometry relative="1" as="geometry">
                        <mxPoint x="360" y="620" as="sourcePoint"/>
                    </mxGeometry>
                </mxCell>
                <mxCell id="uLJsTBXCzgYsL3XrusuO-1" style="edgeStyle=orthogonalEdgeStyle;rounded=0;orthogonalLoop=1;jettySize=auto;html=1;entryX=0.5;entryY=0;entryDx=0;entryDy=0;shadow=0;fontFamily=阿里汉仪智能黑体;fontSource=https%3A%2F%2Fhellowebfonts.oss-cn-beijing.aliyuncs.com%2F698F3099-E62F-4C3B-B30A-04FB735069FE%2F202209%2F44C5C1037925EC78.ttf;fontSize=14;fontColor=#1A1A1A;endArrow=classic;endFill=1;" parent="1" source="RWPMWBLEITRf5Ue282e1-11" target="F3lPO6Og-AA01Zl45GUm-1" edge="1">
                    <mxGeometry relative="1" as="geometry">
                        <Array as="points">
                            <mxPoint x="160" y="650"/>
                            <mxPoint x="360" y="650"/>
                        </Array>
                    </mxGeometry>
                </mxCell>
                <mxCell id="RWPMWBLEITRf5Ue282e1-11" value="换个灯" style="rounded=1;whiteSpace=wrap;html=1;fontSize=14;glass=0;strokeWidth=1;shadow=0;fontFamily=阿里汉仪智能黑体;fontSource=https%3A%2F%2Fhellowebfonts.oss-cn-beijing.aliyuncs.com%2F698F3099-E62F-4C3B-B30A-04FB735069FE%2F202209%2F44C5C1037925EC78.ttf;" parent="1" vertex="1">
                    <mxGeometry x="100" y="450" width="120" height="40" as="geometry"/>
                </mxCell>
                <mxCell id="F3lPO6Og-AA01Zl45GUm-1" value="结束" style="ellipse;whiteSpace=wrap;html=1;rounded=1;glass=0;strokeWidth=1;shadow=0;fontSize=14;fontFamily=阿里汉仪智能黑体;fontSource=https%3A%2F%2Fhellowebfonts.oss-cn-beijing.aliyuncs.com%2F698F3099-E62F-4C3B-B30A-04FB735069FE%2F202209%2F44C5C1037925EC78.ttf;" parent="1" vertex="1">
                    <mxGeometry x="320" y="690" width="80" height="40" as="geometry"/>
                </mxCell>
                <mxCell id="F3lPO6Og-AA01Zl45GUm-6" style="edgeStyle=orthogonalEdgeStyle;rounded=0;orthogonalLoop=1;jettySize=auto;html=1;fontSize=14;fontFamily=阿里汉仪智能黑体;fontSource=https%3A%2F%2Fhellowebfonts.oss-cn-beijing.aliyuncs.com%2F698F3099-E62F-4C3B-B30A-04FB735069FE%2F202209%2F44C5C1037925EC78.ttf;shadow=0;" parent="1" source="F3lPO6Og-AA01Zl45GUm-5" target="RWPMWBLEITRf5Ue282e1-2" edge="1">
                    <mxGeometry relative="1" as="geometry"/>
                </mxCell>
                <mxCell id="F3lPO6Og-AA01Zl45GUm-5" value="开始" style="ellipse;whiteSpace=wrap;html=1;fontSize=14;fontFamily=阿里汉仪智能黑体;fontSource=https%3A%2F%2Fhellowebfonts.oss-cn-beijing.aliyuncs.com%2F698F3099-E62F-4C3B-B30A-04FB735069FE%2F202209%2F44C5C1037925EC78.ttf;shadow=0;" parent="1" vertex="1">
                    <mxGeometry x="320" y="-60" width="80" height="40" as="geometry"/>
                </mxCell>
                <mxCell id="s1PAAfIKxOOCVqdg-I9Z-37" value="" style="endArrow=none;dashed=1;html=1;dashPattern=1 3;strokeWidth=2;shadow=0;fontFamily=阿里汉仪智能黑体;fontSize=14;fontColor=default;align=center;strokeColor=default;startArrow=none;" parent="1" source="OEU-2yujjEtkwBlndGsu-10" target="F3lPO6Og-AA01Zl45GUm-5" edge="1">
                    <mxGeometry width="50" height="50" relative="1" as="geometry">
                        <mxPoint x="205" y="-63.25" as="sourcePoint"/>
                        <mxPoint x="280.71067811865476" y="-20" as="targetPoint"/>
                    </mxGeometry>
                </mxCell>
                <mxCell id="s1PAAfIKxOOCVqdg-I9Z-39" value="" style="endArrow=none;dashed=1;html=1;dashPattern=1 3;strokeWidth=2;rounded=0;shadow=0;fontFamily=阿里汉仪智能黑体;fontSource=https%3A%2F%2Fhellowebfonts.oss-cn-beijing.aliyuncs.com%2F698F3099-E62F-4C3B-B30A-04FB735069FE%2F202209%2F44C5C1037925EC78.ttf;fontSize=14;" parent="1" source="RWPMWBLEITRf5Ue282e1-2" target="OEU-2yujjEtkwBlndGsu-11" edge="1">
                    <mxGeometry width="50" height="50" relative="1" as="geometry">
                        <mxPoint x="420" y="120" as="sourcePoint"/>
                        <mxPoint x="520" y="50.95238095238096" as="targetPoint"/>
                    </mxGeometry>
                </mxCell>
                <mxCell id="OEU-2yujjEtkwBlndGsu-2" value="" style="endArrow=none;dashed=1;html=1;dashPattern=1 3;strokeWidth=2;rounded=0;shadow=0;fontFamily=阿里汉仪智能黑体;fontSource=https%3A%2F%2Fhellowebfonts.oss-cn-beijing.aliyuncs.com%2F698F3099-E62F-4C3B-B30A-04FB735069FE%2F202209%2F44C5C1037925EC78.ttf;fontSize=14;" parent="1" source="QLsCSTX1UD4tIitnedBa-9" target="QLsCSTX1UD4tIitnedBa-3" edge="1">
                    <mxGeometry width="50" height="50" relative="1" as="geometry">
                        <mxPoint x="565" y="160" as="sourcePoint"/>
                        <mxPoint x="565" y="180.71067811865476" as="targetPoint"/>
                    </mxGeometry>
                </mxCell>
                <mxCell id="OEU-2yujjEtkwBlndGsu-3" value="流程图遇到决策才会产生分支。" style="shape=note;strokeWidth=2;fontSize=14;size=20;whiteSpace=wrap;html=1;fillColor=#FFFECB;strokeColor=#FEA82F;shadow=0;fontFamily=阿里汉仪智能黑体;fontSource=https%3A%2F%2Fhellowebfonts.oss-cn-beijing.aliyuncs.com%2F698F3099-E62F-4C3B-B30A-04FB735069FE%2F202209%2F44C5C1037925EC78.ttf;align=left;" parent="1" vertex="1">
                    <mxGeometry x="170" y="230" width="110" height="90" as="geometry"/>
                </mxCell>
                <mxCell id="OEU-2yujjEtkwBlndGsu-4" value="" style="endArrow=none;dashed=1;html=1;dashPattern=1 3;strokeWidth=2;rounded=0;shadow=0;fontFamily=阿里汉仪智能黑体;fontSource=https%3A%2F%2Fhellowebfonts.oss-cn-beijing.aliyuncs.com%2F698F3099-E62F-4C3B-B30A-04FB735069FE%2F202209%2F44C5C1037925EC78.ttf;fontSize=14;" parent="1" source="OEU-2yujjEtkwBlndGsu-3" target="RWPMWBLEITRf5Ue282e1-5" edge="1">
                    <mxGeometry width="50" height="50" relative="1" as="geometry">
                        <mxPoint x="230" y="240" as="sourcePoint"/>
                        <mxPoint x="300.71067811865476" y="190" as="targetPoint"/>
                    </mxGeometry>
                </mxCell>
                <mxCell id="OEU-2yujjEtkwBlndGsu-6" value="检查开关" style="rounded=1;whiteSpace=wrap;html=1;shadow=0;fontFamily=阿里汉仪智能黑体;fontSource=https%3A%2F%2Fhellowebfonts.oss-cn-beijing.aliyuncs.com%2F698F3099-E62F-4C3B-B30A-04FB735069FE%2F202209%2F44C5C1037925EC78.ttf;fontSize=14;strokeColor=#1A1A1A;" parent="1" vertex="1">
                    <mxGeometry x="85" y="50" width="120" height="40" as="geometry"/>
                </mxCell>
                <mxCell id="OEU-2yujjEtkwBlndGsu-7" value="" style="swimlane;startSize=0;shadow=0;fontFamily=阿里汉仪智能黑体;fontSource=https%3A%2F%2Fhellowebfonts.oss-cn-beijing.aliyuncs.com%2F698F3099-E62F-4C3B-B30A-04FB735069FE%2F202209%2F44C5C1037925EC78.ttf;fontSize=14;strokeColor=#1A1A1A;dashed=1;rounded=1;" parent="1" vertex="1">
                    <mxGeometry x="50" y="10" width="250" height="120" as="geometry"/>
                </mxCell>
                <mxCell id="OEU-2yujjEtkwBlndGsu-8" value="这是一个错误的流程，节点一般只有一个输入输出点。" style="shape=note;strokeWidth=2;fontSize=14;size=20;whiteSpace=wrap;html=1;fillColor=#FF2E00;strokeColor=#FFFFFF;shadow=0;fontFamily=阿里汉仪智能黑体;fontSource=https%3A%2F%2Fhellowebfonts.oss-cn-beijing.aliyuncs.com%2F698F3099-E62F-4C3B-B30A-04FB735069FE%2F202209%2F44C5C1037925EC78.ttf;align=left;" parent="1" vertex="1">
                    <mxGeometry x="-90" y="40" width="90" height="120" as="geometry"/>
                </mxCell>
                <mxCell id="OEU-2yujjEtkwBlndGsu-9" value="" style="endArrow=none;dashed=1;html=1;dashPattern=1 3;strokeWidth=2;rounded=0;shadow=0;fontFamily=阿里汉仪智能黑体;fontSource=https%3A%2F%2Fhellowebfonts.oss-cn-beijing.aliyuncs.com%2F698F3099-E62F-4C3B-B30A-04FB735069FE%2F202209%2F44C5C1037925EC78.ttf;fontSize=14;" parent="1" source="OEU-2yujjEtkwBlndGsu-8" target="OEU-2yujjEtkwBlndGsu-7" edge="1">
                    <mxGeometry width="50" height="50" relative="1" as="geometry">
                        <mxPoint x="-50" y="70" as="sourcePoint"/>
                        <mxPoint x="20.710678118654755" y="20" as="targetPoint"/>
                    </mxGeometry>
                </mxCell>
                <mxCell id="OEU-2yujjEtkwBlndGsu-11" value="节点用方框，一般表示操作或者事件" style="shape=note;strokeWidth=2;fontSize=14;size=20;whiteSpace=wrap;html=1;fillColor=#FFFECB;strokeColor=#FEA82F;shadow=0;fontFamily=阿里汉仪智能黑体;fontSource=https%3A%2F%2Fhellowebfonts.oss-cn-beijing.aliyuncs.com%2F698F3099-E62F-4C3B-B30A-04FB735069FE%2F202209%2F44C5C1037925EC78.ttf;align=left;" parent="1" vertex="1">
                    <mxGeometry x="490" y="-10" width="100" height="110" as="geometry"/>
                </mxCell>
                <mxCell id="QLsCSTX1UD4tIitnedBa-2" value="一个多余的考虑" style="shape=note;strokeWidth=2;fontSize=14;size=20;whiteSpace=wrap;html=1;fillColor=#FF2E00;strokeColor=#FFFFFF;shadow=0;fontFamily=阿里汉仪智能黑体;fontSource=https%3A%2F%2Fhellowebfonts.oss-cn-beijing.aliyuncs.com%2F698F3099-E62F-4C3B-B30A-04FB735069FE%2F202209%2F44C5C1037925EC78.ttf;align=left;" parent="1" vertex="1">
                    <mxGeometry x="770" y="-10" width="80" height="110" as="geometry"/>
                </mxCell>
                <mxCell id="QLsCSTX1UD4tIitnedBa-3" value="" style="swimlane;startSize=0;shadow=0;fontFamily=阿里汉仪智能黑体;fontSource=https%3A%2F%2Fhellowebfonts.oss-cn-beijing.aliyuncs.com%2F698F3099-E62F-4C3B-B30A-04FB735069FE%2F202209%2F44C5C1037925EC78.ttf;fontSize=14;strokeColor=#1A1A1A;dashed=1;rounded=1;" parent="1" vertex="1">
                    <mxGeometry x="610" y="170" width="230" height="160" as="geometry">
                        <mxRectangle x="610" y="160" width="50" height="40" as="alternateBounds"/>
                    </mxGeometry>
                </mxCell>
                <mxCell id="QLsCSTX1UD4tIitnedBa-7" value="" style="edgeStyle=orthogonalEdgeStyle;rounded=0;orthogonalLoop=1;jettySize=auto;html=1;shadow=0;fontFamily=阿里汉仪智能黑体;fontSource=https%3A%2F%2Fhellowebfonts.oss-cn-beijing.aliyuncs.com%2F698F3099-E62F-4C3B-B30A-04FB735069FE%2F202209%2F44C5C1037925EC78.ttf;fontSize=14;endArrow=classic;endFill=1;" parent="QLsCSTX1UD4tIitnedBa-3" source="QLsCSTX1UD4tIitnedBa-4" target="QLsCSTX1UD4tIitnedBa-6" edge="1">
                    <mxGeometry relative="1" as="geometry"/>
                </mxCell>
                <mxCell id="QLsCSTX1UD4tIitnedBa-4" value="突然停电" style="rounded=1;whiteSpace=wrap;html=1;fontSize=14;glass=0;strokeWidth=1;shadow=0;fontFamily=阿里汉仪智能黑体;fontSource=https%3A%2F%2Fhellowebfonts.oss-cn-beijing.aliyuncs.com%2F698F3099-E62F-4C3B-B30A-04FB735069FE%2F202209%2F44C5C1037925EC78.ttf;" parent="QLsCSTX1UD4tIitnedBa-3" vertex="1">
                    <mxGeometry x="80" y="20" width="120" height="40" as="geometry"/>
                </mxCell>
                <mxCell id="QLsCSTX1UD4tIitnedBa-6" value="结束" style="ellipse;whiteSpace=wrap;html=1;fontSize=14;fontFamily=阿里汉仪智能黑体;rounded=1;glass=0;strokeWidth=1;shadow=0;fontSource=https%3A%2F%2Fhellowebfonts.oss-cn-beijing.aliyuncs.com%2F698F3099-E62F-4C3B-B30A-04FB735069FE%2F202209%2F44C5C1037925EC78.ttf;" parent="QLsCSTX1UD4tIitnedBa-3" vertex="1">
                    <mxGeometry x="100" y="110" width="80" height="40" as="geometry"/>
                </mxCell>
                <mxCell id="QLsCSTX1UD4tIitnedBa-8" value="" style="endArrow=none;dashed=1;html=1;dashPattern=1 3;strokeWidth=2;rounded=0;shadow=0;fontFamily=阿里汉仪智能黑体;fontSource=https%3A%2F%2Fhellowebfonts.oss-cn-beijing.aliyuncs.com%2F698F3099-E62F-4C3B-B30A-04FB735069FE%2F202209%2F44C5C1037925EC78.ttf;fontSize=14;" parent="1" source="QLsCSTX1UD4tIitnedBa-2" target="QLsCSTX1UD4tIitnedBa-3" edge="1">
                    <mxGeometry width="50" height="50" relative="1" as="geometry">
                        <mxPoint x="719.2893218813452" y="130" as="sourcePoint"/>
                        <mxPoint x="719.2893218813452" y="80" as="targetPoint"/>
                    </mxGeometry>
                </mxCell>
                <mxCell id="QLsCSTX1UD4tIitnedBa-9" value="明确流程的主体，不需要在图中发散太多异常场景。" style="shape=note;strokeWidth=2;fontSize=14;size=20;whiteSpace=wrap;html=1;fillColor=#FFFECB;strokeColor=#FEA82F;shadow=0;fontFamily=阿里汉仪智能黑体;fontSource=https%3A%2F%2Fhellowebfonts.oss-cn-beijing.aliyuncs.com%2F698F3099-E62F-4C3B-B30A-04FB735069FE%2F202209%2F44C5C1037925EC78.ttf;align=left;" parent="1" vertex="1">
                    <mxGeometry x="620" y="15" width="100" height="110" as="geometry"/>
                </mxCell>
                <mxCell id="ifcMIvCHkcKseI4FGqii-1" value="取下" style="rounded=1;whiteSpace=wrap;html=1;fontSize=14;glass=0;strokeWidth=1;shadow=0;fontFamily=阿里汉仪智能黑体;fontSource=https%3A%2F%2Fhellowebfonts.oss-cn-beijing.aliyuncs.com%2F698F3099-E62F-4C3B-B30A-04FB735069FE%2F202209%2F44C5C1037925EC78.ttf;" parent="1" vertex="1">
                    <mxGeometry x="300" y="320" width="120" height="40" as="geometry"/>
                </mxCell>
                <mxCell id="ifcMIvCHkcKseI4FGqii-2" value="是" style="rounded=0;html=1;jettySize=auto;orthogonalLoop=1;fontSize=14;endArrow=classic;endFill=1;endSize=8;strokeWidth=1;shadow=0;labelBackgroundColor=none;edgeStyle=orthogonalEdgeStyle;fontFamily=阿里汉仪智能黑体;fontSource=https%3A%2F%2Fhellowebfonts.oss-cn-beijing.aliyuncs.com%2F698F3099-E62F-4C3B-B30A-04FB735069FE%2F202209%2F44C5C1037925EC78.ttf;" parent="1" source="RWPMWBLEITRf5Ue282e1-5" target="ifcMIvCHkcKseI4FGqii-1" edge="1">
                    <mxGeometry y="20" relative="1" as="geometry">
                        <mxPoint as="offset"/>
                        <mxPoint x="360" y="250" as="sourcePoint"/>
                        <mxPoint x="360" y="430" as="targetPoint"/>
                    </mxGeometry>
                </mxCell>
                <mxCell id="ifcMIvCHkcKseI4FGqii-3" value="决策事件最好【是】的分支保留为同侧：向下、向右" style="shape=note;strokeWidth=2;fontSize=14;size=20;whiteSpace=wrap;html=1;fillColor=#FFFECB;strokeColor=#FEA82F;shadow=0;fontFamily=阿里汉仪智能黑体;fontSource=https%3A%2F%2Fhellowebfonts.oss-cn-beijing.aliyuncs.com%2F698F3099-E62F-4C3B-B30A-04FB735069FE%2F202209%2F44C5C1037925EC78.ttf;rounded=1;align=left;" parent="1" vertex="1">
                    <mxGeometry x="450" y="350" width="110" height="130" as="geometry"/>
                </mxCell>
                <mxCell id="ifcMIvCHkcKseI4FGqii-4" value="" style="endArrow=none;dashed=1;html=1;dashPattern=1 3;strokeWidth=2;rounded=0;shadow=0;fontFamily=阿里汉仪智能黑体;fontSource=https%3A%2F%2Fhellowebfonts.oss-cn-beijing.aliyuncs.com%2F698F3099-E62F-4C3B-B30A-04FB735069FE%2F202209%2F44C5C1037925EC78.ttf;fontSize=14;" parent="1" source="ifcMIvCHkcKseI4FGqii-3" target="RWPMWBLEITRf5Ue282e1-9" edge="1">
                    <mxGeometry width="50" height="50" relative="1" as="geometry">
                        <mxPoint x="495" y="254.28932188134524" as="sourcePoint"/>
                        <mxPoint x="495" y="204.28932188134524" as="targetPoint"/>
                    </mxGeometry>
                </mxCell>
                <mxCell id="XdJw_OBD-cgkMCHXnp1G-1" value="&lt;h1&gt;基本流程图&lt;/h1&gt;&lt;p style=&quot;&quot;&gt;&lt;font color=&quot;#1a1a1a&quot; style=&quot;font-size: 14px;&quot;&gt;用来表达场景的基本流程，让流程的展示更加直观，便于记忆和传播。&lt;/font&gt;&lt;/p&gt;&lt;font color=&quot;#1a1a1a&quot;&gt;&lt;br&gt;&lt;/font&gt;" style="text;html=1;strokeColor=none;fillColor=none;spacing=5;spacingTop=-20;whiteSpace=wrap;overflow=hidden;rounded=0;shadow=0;fontFamily=阿里汉仪智能黑体;fontSource=https%3A%2F%2Fhellowebfonts.oss-cn-beijing.aliyuncs.com%2F698F3099-E62F-4C3B-B30A-04FB735069FE%2F202209%2F44C5C1037925EC78.ttf;fontSize=14;" parent="1" vertex="1">
                    <mxGeometry x="40" y="-380" width="190" height="120" as="geometry"/>
                </mxCell>
                <mxCell id="Z0cyMaYatN1IHDbyLZWB-1" value="&lt;p style=&quot;font-style: normal; font-variant-ligatures: normal; font-variant-caps: normal; font-weight: 400; letter-spacing: normal; orphans: 2; text-indent: 0px; text-transform: none; widows: 2; word-spacing: 0px; -webkit-text-stroke-width: 0px; text-decoration-thickness: initial; text-decoration-style: initial; text-decoration-color: initial; margin: 1.4em 0px; color: rgb(18, 18, 18); font-family: -apple-system, BlinkMacSystemFont, &amp;quot;Helvetica Neue&amp;quot;, &amp;quot;PingFang SC&amp;quot;, &amp;quot;Microsoft YaHei&amp;quot;, &amp;quot;Source Han Sans SC&amp;quot;, &amp;quot;Noto Sans CJK SC&amp;quot;, &amp;quot;WenQuanYi Micro Hei&amp;quot;, sans-serif; font-size: medium; text-align: start; background-color: rgb(255, 255, 255);&quot; data-pid=&quot;Mma5n5jJ&quot;&gt;（1）绘制流程图时，为了提高流程图的逻辑性，应遵循从左到右、从上到下的顺序排列。&lt;/p&gt;&lt;p style=&quot;font-style: normal; font-variant-ligatures: normal; font-variant-caps: normal; font-weight: 400; letter-spacing: normal; orphans: 2; text-indent: 0px; text-transform: none; widows: 2; word-spacing: 0px; -webkit-text-stroke-width: 0px; text-decoration-thickness: initial; text-decoration-style: initial; text-decoration-color: initial; margin: 1.4em 0px; color: rgb(18, 18, 18); font-family: -apple-system, BlinkMacSystemFont, &amp;quot;Helvetica Neue&amp;quot;, &amp;quot;PingFang SC&amp;quot;, &amp;quot;Microsoft YaHei&amp;quot;, &amp;quot;Source Han Sans SC&amp;quot;, &amp;quot;Noto Sans CJK SC&amp;quot;, &amp;quot;WenQuanYi Micro Hei&amp;quot;, sans-serif; font-size: medium; text-align: start; background-color: rgb(255, 255, 255);&quot; data-pid=&quot;JJjL8fWx&quot;&gt;（2）一个流程从开始符开始，以结束符结束。开始符号只能出现一次，而结束符号可出现多次。若流程足够清晰，可省略开始、结束符号。&lt;/p&gt;&lt;p style=&quot;font-style: normal; font-variant-ligatures: normal; font-variant-caps: normal; font-weight: 400; letter-spacing: normal; orphans: 2; text-indent: 0px; text-transform: none; widows: 2; word-spacing: 0px; -webkit-text-stroke-width: 0px; text-decoration-thickness: initial; text-decoration-style: initial; text-decoration-color: initial; margin: 1.4em 0px; color: rgb(18, 18, 18); font-family: -apple-system, BlinkMacSystemFont, &amp;quot;Helvetica Neue&amp;quot;, &amp;quot;PingFang SC&amp;quot;, &amp;quot;Microsoft YaHei&amp;quot;, &amp;quot;Source Han Sans SC&amp;quot;, &amp;quot;Noto Sans CJK SC&amp;quot;, &amp;quot;WenQuanYi Micro Hei&amp;quot;, sans-serif; font-size: medium; text-align: start; background-color: rgb(255, 255, 255);&quot; data-pid=&quot;d_ZfgOeU&quot;&gt;（3）菱形为判断符号，必须要有“是和否（或Y和N）”两种处理结果，意思是说，菱形判断框一定需要有两条箭头流出；且判断符号的上下端流入流出一般用“是（或Y）”，左右端流入流出用“否（或Y）”。&lt;/p&gt;&lt;p style=&quot;font-style: normal; font-variant-ligatures: normal; font-variant-caps: normal; font-weight: 400; letter-spacing: normal; orphans: 2; text-align: left; text-indent: 0px; text-transform: none; widows: 2; word-spacing: 0px; -webkit-text-stroke-width: 0px; text-decoration-thickness: initial; text-decoration-style: initial; text-decoration-color: initial; margin: 1.4em 0px; color: rgb(18, 18, 18); font-family: -apple-system, BlinkMacSystemFont, &amp;quot;Helvetica Neue&amp;quot;, &amp;quot;PingFang SC&amp;quot;, &amp;quot;Microsoft YaHei&amp;quot;, &amp;quot;Source Han Sans SC&amp;quot;, &amp;quot;Noto Sans CJK SC&amp;quot;, &amp;quot;WenQuanYi Micro Hei&amp;quot;, sans-serif; font-size: medium; background-color: rgb(255, 255, 255);&quot; data-pid=&quot;3sLQkUTl&quot;&gt;（4）同一流程图内，符号大小需要保持一致，同时连接线不能交叉，连接线不能无故弯曲。&lt;/p&gt;&lt;p style=&quot;font-style: normal; font-variant-ligatures: normal; font-variant-caps: normal; font-weight: 400; letter-spacing: normal; orphans: 2; text-align: left; text-indent: 0px; text-transform: none; widows: 2; word-spacing: 0px; -webkit-text-stroke-width: 0px; text-decoration-thickness: initial; text-decoration-style: initial; text-decoration-color: initial; margin: 1.4em 0px; color: rgb(18, 18, 18); font-family: -apple-system, BlinkMacSystemFont, &amp;quot;Helvetica Neue&amp;quot;, &amp;quot;PingFang SC&amp;quot;, &amp;quot;Microsoft YaHei&amp;quot;, &amp;quot;Source Han Sans SC&amp;quot;, &amp;quot;Noto Sans CJK SC&amp;quot;, &amp;quot;WenQuanYi Micro Hei&amp;quot;, sans-serif; font-size: medium; background-color: rgb(255, 255, 255);&quot; data-pid=&quot;FO9f0R0t&quot;&gt;（5）流程处理关系为并行关系的，需要将流程放在同一高度。&lt;/p&gt;&lt;p style=&quot;font-style: normal; font-variant-ligatures: normal; font-variant-caps: normal; font-weight: 400; letter-spacing: normal; orphans: 2; text-align: left; text-indent: 0px; text-transform: none; widows: 2; word-spacing: 0px; -webkit-text-stroke-width: 0px; text-decoration-thickness: initial; text-decoration-style: initial; text-decoration-color: initial; margin: 1.4em 0px; color: rgb(18, 18, 18); font-family: -apple-system, BlinkMacSystemFont, &amp;quot;Helvetica Neue&amp;quot;, &amp;quot;PingFang SC&amp;quot;, &amp;quot;Microsoft YaHei&amp;quot;, &amp;quot;Source Han Sans SC&amp;quot;, &amp;quot;Noto Sans CJK SC&amp;quot;, &amp;quot;WenQuanYi Micro Hei&amp;quot;, sans-serif; font-size: medium; background-color: rgb(255, 255, 255);&quot; data-pid=&quot;hchd6MeK&quot;&gt;（6）必要时应采用标注，以此来清晰地说明流程，标注要用专门的标注符号。&lt;/p&gt;&lt;p style=&quot;font-style: normal; font-variant-ligatures: normal; font-variant-caps: normal; font-weight: 400; letter-spacing: normal; orphans: 2; text-align: left; text-indent: 0px; text-transform: none; widows: 2; word-spacing: 0px; -webkit-text-stroke-width: 0px; text-decoration-thickness: initial; text-decoration-style: initial; text-decoration-color: initial; margin: 1.4em 0px; color: rgb(18, 18, 18); font-family: -apple-system, BlinkMacSystemFont, &amp;quot;Helvetica Neue&amp;quot;, &amp;quot;PingFang SC&amp;quot;, &amp;quot;Microsoft YaHei&amp;quot;, &amp;quot;Source Han Sans SC&amp;quot;, &amp;quot;Noto Sans CJK SC&amp;quot;, &amp;quot;WenQuanYi Micro Hei&amp;quot;, sans-serif; font-size: medium; background-color: rgb(255, 255, 255);&quot; data-pid=&quot;BDISdHoK&quot;&gt;（7）处理流程须以单一入口和单一出口绘制，同一路径的指示箭头应只有一个。&lt;/p&gt;&lt;p style=&quot;font-style: normal; font-variant-ligatures: normal; font-variant-caps: normal; font-weight: 400; letter-spacing: normal; orphans: 2; text-align: left; text-indent: 0px; text-transform: none; widows: 2; word-spacing: 0px; -webkit-text-stroke-width: 0px; text-decoration-thickness: initial; text-decoration-style: initial; text-decoration-color: initial; margin: 1.4em 0px; color: rgb(18, 18, 18); font-family: -apple-system, BlinkMacSystemFont, &amp;quot;Helvetica Neue&amp;quot;, &amp;quot;PingFang SC&amp;quot;, &amp;quot;Microsoft YaHei&amp;quot;, &amp;quot;Source Han Sans SC&amp;quot;, &amp;quot;Noto Sans CJK SC&amp;quot;, &amp;quot;WenQuanYi Micro Hei&amp;quot;, sans-serif; font-size: medium; background-color: rgb(255, 255, 255);&quot; data-pid=&quot;BDISdHoK&quot;&gt;（8）同一路径的指示箭头应只有一个。&lt;br&gt;&lt;/p&gt;&lt;p style=&quot;font-style: normal; font-variant-ligatures: normal; font-variant-caps: normal; font-weight: 400; letter-spacing: normal; orphans: 2; text-align: left; text-indent: 0px; text-transform: none; widows: 2; word-spacing: 0px; -webkit-text-stroke-width: 0px; text-decoration-thickness: initial; text-decoration-style: initial; text-decoration-color: initial; margin: 1.4em 0px; color: rgb(18, 18, 18); font-family: -apple-system, BlinkMacSystemFont, &amp;quot;Helvetica Neue&amp;quot;, &amp;quot;PingFang SC&amp;quot;, &amp;quot;Microsoft YaHei&amp;quot;, &amp;quot;Source Han Sans SC&amp;quot;, &amp;quot;Noto Sans CJK SC&amp;quot;, &amp;quot;WenQuanYi Micro Hei&amp;quot;, sans-serif; font-size: medium; background-color: rgb(255, 255, 255);&quot; data-pid=&quot;BDISdHoK&quot;&gt;（9）流程图中，如果有参考其他已经定义的流程，不需重复绘制，直接用已定义流程符号即可。&lt;/p&gt;" style="text;whiteSpace=wrap;html=1;fontSize=14;fontFamily=阿里汉仪智能黑体;fontColor=#1A1A1A;" parent="1" vertex="1">
                    <mxGeometry x="961" y="-95" width="560" height="610" as="geometry"/>
                </mxCell>
                <mxCell id="uLJsTBXCzgYsL3XrusuO-5" value="修理灯" style="shape=process;whiteSpace=wrap;html=1;backgroundOutline=1;rounded=1;shadow=0;fontFamily=阿里汉仪智能黑体;fontSource=https%3A%2F%2Fhellowebfonts.oss-cn-beijing.aliyuncs.com%2F698F3099-E62F-4C3B-B30A-04FB735069FE%2F202209%2F44C5C1037925EC78.ttf;fontSize=14;fontColor=#1A1A1A;strokeColor=#1A1A1A;fillColor=#FFFFFF;" parent="1" vertex="1">
                    <mxGeometry x="300" y="570" width="120" height="40" as="geometry"/>
                </mxCell>
                <mxCell id="uLJsTBXCzgYsL3XrusuO-7" value="修理是一个另外详细的流程，这里可以不需要详细展开，作为新流程图绘制。" style="shape=note;strokeWidth=2;fontSize=14;size=20;whiteSpace=wrap;html=1;fillColor=#FFFECB;strokeColor=#FEA82F;shadow=0;fontFamily=阿里汉仪智能黑体;fontSource=https%3A%2F%2Fhellowebfonts.oss-cn-beijing.aliyuncs.com%2F698F3099-E62F-4C3B-B30A-04FB735069FE%2F202209%2F44C5C1037925EC78.ttf;rounded=1;align=left;" parent="1" vertex="1">
                    <mxGeometry x="490" y="515" width="110" height="130" as="geometry"/>
                </mxCell>
                <mxCell id="uLJsTBXCzgYsL3XrusuO-8" value="" style="endArrow=none;dashed=1;html=1;dashPattern=1 3;strokeWidth=2;rounded=0;shadow=0;fontFamily=阿里汉仪智能黑体;fontSource=https%3A%2F%2Fhellowebfonts.oss-cn-beijing.aliyuncs.com%2F698F3099-E62F-4C3B-B30A-04FB735069FE%2F202209%2F44C5C1037925EC78.ttf;fontSize=14;fontColor=#1A1A1A;" parent="1" source="uLJsTBXCzgYsL3XrusuO-7" target="uLJsTBXCzgYsL3XrusuO-5" edge="1">
                    <mxGeometry width="50" height="50" relative="1" as="geometry">
                        <mxPoint x="509.28932188134524" y="520" as="sourcePoint"/>
                        <mxPoint x="509.28932188134524" y="470" as="targetPoint"/>
                    </mxGeometry>
                </mxCell>
                <mxCell id="gfhigBiiKLFYpVZEgQD3-2" value="在操作后边产生分支，会导致整个图的流向不清晰。" style="shape=note;strokeWidth=2;fontSize=14;size=20;whiteSpace=wrap;html=1;fillColor=#FFFECB;strokeColor=#FEA82F;shadow=0;fontFamily=阿里汉仪智能黑体;fontSource=https%3A%2F%2Fhellowebfonts.oss-cn-beijing.aliyuncs.com%2F698F3099-E62F-4C3B-B30A-04FB735069FE%2F202209%2F44C5C1037925EC78.ttf;align=left;" parent="1" vertex="1">
                    <mxGeometry x="30" y="160" width="120" height="80" as="geometry"/>
                </mxCell>
                <mxCell id="gfhigBiiKLFYpVZEgQD3-3" value="" style="endArrow=none;dashed=1;html=1;dashPattern=1 3;strokeWidth=2;rounded=0;fontFamily=阿里汉仪智能黑体;fontSource=https%3A%2F%2Fhellowebfonts.oss-cn-beijing.aliyuncs.com%2F698F3099-E62F-4C3B-B30A-04FB735069FE%2F202209%2F44C5C1037925EC78.ttf;fontSize=16;" parent="1" source="gfhigBiiKLFYpVZEgQD3-2" target="OEU-2yujjEtkwBlndGsu-7" edge="1">
                    <mxGeometry width="50" height="50" relative="1" as="geometry">
                        <mxPoint x="120" y="230" as="sourcePoint"/>
                        <mxPoint x="190.71067811865476" y="180" as="targetPoint"/>
                    </mxGeometry>
                </mxCell>
                <mxCell id="gfhigBiiKLFYpVZEgQD3-4" value="结束" style="ellipse;whiteSpace=wrap;html=1;rounded=1;glass=0;strokeWidth=1;shadow=0;fontSize=14;fontFamily=阿里汉仪智能黑体;fontSource=https%3A%2F%2Fhellowebfonts.oss-cn-beijing.aliyuncs.com%2F698F3099-E62F-4C3B-B30A-04FB735069FE%2F202209%2F44C5C1037925EC78.ttf;" parent="1" vertex="1">
                    <mxGeometry x="510" y="280" width="80" height="40" as="geometry"/>
                </mxCell>
                <mxCell id="OEU-2yujjEtkwBlndGsu-10" value="流程一般都是有开始、结束节点的" style="shape=note;strokeWidth=2;fontSize=14;size=20;whiteSpace=wrap;html=1;fillColor=#FFFECB;strokeColor=#FEA82F;shadow=0;fontFamily=阿里汉仪智能黑体;fontSource=https%3A%2F%2Fhellowebfonts.oss-cn-beijing.aliyuncs.com%2F698F3099-E62F-4C3B-B30A-04FB735069FE%2F202209%2F44C5C1037925EC78.ttf;align=left;" parent="1" vertex="1">
                    <mxGeometry x="170" y="-120" width="105" height="110" as="geometry"/>
                </mxCell>
                <mxCell id="gfhigBiiKLFYpVZEgQD3-6" value="" style="endArrow=none;dashed=1;html=1;dashPattern=1 3;strokeWidth=2;shadow=0;fontFamily=阿里汉仪智能黑体;fontSize=14;fontColor=default;align=center;strokeColor=default;" parent="1" target="OEU-2yujjEtkwBlndGsu-10" edge="1">
                    <mxGeometry width="50" height="50" relative="1" as="geometry">
                        <mxPoint x="205" y="-63.25" as="sourcePoint"/>
                        <mxPoint x="321.6530708597911" y="-45.6901894853213" as="targetPoint"/>
                    </mxGeometry>
                </mxCell>
            </root>
        </mxGraphModel>
    </diagram>
</mxfile>